<svg width="43" height="85" viewBox="0 0 43 85" fill="none" xmlns="http://www.w3.org/2000/svg">
<path d="M0 12.0711C0 7.61654 5.38571 5.38571 8.53553 8.53553L38.9645 38.9645C40.9171 40.9171 40.9171 44.0829 38.9645 46.0355L8.53553 76.4645C5.3857 79.6143 0 77.3835 0 72.9289V12.0711Z" fill="#231F20"/>
<path d="M11.8183 51.7438C13.0906 52.9963 14.9716 52.7294 15.8099 51.2553C15.869 51.1509 15.9325 51.0405 16.0211 50.9639C16.2704 50.7487 16.6339 50.8581 16.8184 51.2045C17.1097 51.7516 17.5424 52.135 18.1145 52.3664C19.1935 52.8022 20.4814 52.4139 21.1181 51.4609C21.8052 50.432 21.6808 49.1133 20.8221 48.257C20.3608 47.7964 19.807 47.5547 19.1607 47.5159C18.6503 47.4851 18.518 47.3472 18.517 46.8444C18.5089 43.7244 18.5009 40.6044 18.4929 37.4844C18.4915 36.9804 18.7023 36.7759 19.2103 36.7249C20.2843 36.6165 21.0439 36.0588 21.3982 35.0377C21.7465 34.0337 21.5221 33.1225 20.7465 32.3905C19.5417 31.2541 17.6651 31.546 16.8371 32.9804C16.7153 33.192 16.591 33.3902 16.311 33.3833C16.0532 33.3764 15.9316 33.1905 15.8159 32.9938C15.1522 31.8647 13.7578 31.436 12.5748 31.9952C10.9569 32.7595 10.6321 34.9177 11.96 36.1186C12.3971 36.5136 12.9167 36.7338 13.5106 36.7671C14.0615 36.7979 14.1831 36.9274 14.1821 37.4783C14.1774 40.5911 14.1727 43.704 14.1681 46.8168C14.1675 47.2847 13.9527 47.4955 13.482 47.5386C12.414 47.6355 11.6603 48.1865 11.2842 49.1865C10.9112 50.1769 11.188 51.0501 11.8187 51.745L11.8183 51.7438Z" fill="#FFFBE7" stroke="#FFFBE7"/>
</svg>
