<?xml version="1.0" encoding="UTF-8"?>
<svg id="Capa_1" xmlns="http://www.w3.org/2000/svg" version="1.1" viewBox="0 0 800 800">
  <!-- Generator: Adobe Illustrator 29.0.1, SVG Export Plug-In . SVG Version: 2.1.0 Build 192)  -->
  <defs>
    <style>
      .st0 {
        fill: #fffbe7;
      }
    </style>
  </defs>
  <path class="st0" d="M792.6,362.7L416.1,26.1c-.7-.7-1.3-1.2-2.1-1.6-8.2-7.9-21.4-8.2-30.1-.5L7.4,360.6c-9.2,8.2-9.9,22.2-1.8,31.4,4.4,4.9,10.5,7.4,16.6,7.4s10.5-1.8,14.8-5.6l67.8-60.7v392.6c0,30.8,25,55.9,55.9,55.9h118.8c29,0,52.5-23.5,52.5-52.5v-199.6c0-4.4,3.6-8.1,8.1-8.1h120c4.4,0,8.1,3.6,8.1,8.1v199.6c0,29,23.5,52.5,52.5,52.5h118.8c31.3,0,55.9-30.8,55.9-70.1v-376.3l67.8,60.7c4.3,3.8,9.5,5.6,14.8,5.6s12.2-2.5,16.6-7.4c7.9-9.2,7.1-23.2-2-31.4ZM650.8,472.5v238.8c0,16-7.9,25.7-11.5,25.7h-118.8c-4.4,0-8.1-3.6-8.1-8.1v-199.3c0-29-23.5-52.5-52.5-52.5h-120c-29,0-52.5,23.5-52.5,52.5v199.6c0,4.4-3.6,8.1-8.1,8.1h-118.8c-6.3,0-11.5-5.1-11.5-11.5v-432.4l249.8-223.1,251.9,225.3v177h0Z"/>
</svg>