<?xml version="1.0" encoding="UTF-8"?>
<svg id="Calque_2" data-name="Calque 2" xmlns="http://www.w3.org/2000/svg" viewBox="0 0 266.82 261.35">
  <defs>
    <style>
      .cls-1 {
        fill: #fcea10;
      }

      .cls-2 {
        fill: #1d1d1b;
      }

      .cls-3 {
        fill: #fff;
      }

      .cls-4 {
        fill: #ffed00;
      }

      .cls-5 {
        fill: #b2b2b2;
      }

      .cls-6 {
        fill: #88d1f0;
      }
    </style>
  </defs>
  <g id="Calque_1-2" data-name="Calque 1">
    <path class="cls-6" d="M15.9,190.43h2.55l.75,2.53h8.99l.75-2.53h13.32l.75,2.53h8.99l.75-2.53h13.32l.75,2.53h8.99l.75-2.53h13.32l.75,2.53h8.99l.75-2.53h13.32l.75,2.53h8.99l.75-2.53h13.32l.75,2.53h8.99l.75-2.53h13.32l.75,2.53h8.99l.75-2.53h13.32l.75,2.53h8.99l.75-2.53h13.32l.75,2.53h8.99l.75-2.53h13.32l.75,2.53h8.99l.75-2.53h2.24c9.15-17.79,14.32-37.97,14.32-59.35,0-.87-.01-1.75-.03-2.62-11.5-7.98-33.02-17.02-71.51-17.02-50.56,0-45.96,22.63-119.5,22.63-36.3,0-56.75-8.07-68.15-16.24-.44,4.36-.67,8.77-.67,13.25,0,21.38,5.17,41.56,14.32,59.35h1.58Z"/>
    <path class="cls-4" d="M68.41,111.44l-11.55-12.55s-22.69,3.12-23.98,3.12-9.02-5.85-10.96-12.02c-1.94-6.18-1.27-9.31-.06-9.55,1.21-.24,3.6-4.05,10.65-5.47,1.66-.33,7.35-15.45,7.35-15.45,0,0,9.66-4.74,13.35-5.39,0,0,7.01-6.66,7.57-6.1s3.57,4.89,3.77,5.48c.21.59,2.06,0,2.42-.15.35-.15,10.02-5.45,10.37-4.6.35.85.53,10.08.53,10.08,0,0,7.75,3.77,11.28,7.51,0,0,9.02,1.71,11.4,3.18,2.39,1.47,12.2,8.49,15.53,14.58,0,0,1.59,1,2.03,1.21.44.21,24.57,8.54,27.13,9.02,2.56.47,6.45,1.56,9.49.5,3.03-1.06,23.86-7.1,40.72-1.74,16.85,5.36,18.21,6.07,19.51,5.83,1.22-.22,19.13-4.9,35.06-17.55C230.52,34.29,184.1,1.14,129.93,1.14,62.65,1.14,7.3,52.29.67,117.83c10.03,7.19,27.06,14.29,55.72,15.9,3.31-3.71,5.94-6.73,6.2-7.27.71-1.47,5.83-15.03,5.83-15.03"/>
    <path class="cls-2" d="M192.09,244.91h-124.85c3.21,1.77,6.49,3.41,9.86,4.91l.7-2.37h8.99l.75,2.53h13.32l.75-2.53h8.99l.75,2.53h13.32l.75-2.53h8.99l.75,2.53h13.32l.75-2.53h8.99l.75,2.53h13.32l.75-2.53h8.99l.7,2.37c3.36-1.5,6.65-3.14,9.86-4.91h-.54Z"/>
    <path class="cls-6" d="M173.08,247.45l-.75,2.53h-13.32l-.75-2.53h-8.99l-.75,2.53h-13.32l-.75-2.53h-8.99l-.75,2.53h-13.32l-.75-2.53h-8.99l-.75,2.53h-13.32l-.75-2.53h-8.99l-.7,2.37c16.14,7.19,34.02,11.19,52.84,11.19s36.69-4,52.84-11.19l-.7-2.37h-8.99Z"/>
    <path class="cls-2" d="M55.37,244.91h151.89c.69,0,1.25.56,1.25,1.25v.04c0,.69-.56,1.25-1.25,1.25H55.37c-.69,0-1.25-.56-1.25-1.25v-.04c0-.69.56-1.25,1.25-1.25"/>
    <path class="cls-1" d="M217.75,112.72l-.41.7c20.96,3.1,34.29,9.34,42.5,15.04-.28-14.24-2.85-27.92-7.36-40.68-1.71,1.93-4.14,4.45-7.99,8.36-4.33,4.41-26.74,16.57-26.74,16.57"/>
    <path class="cls-2" d="M34.24,234.62s-.07,0-.1,0l-9.33-1.55c-.28-.05-.5-.28-.52-.57l-.03-.38-.49-.09c-.28-.05-.49-.29-.51-.57l-.31-4.61c-.34.82-.69,1.64-1.03,2.46-.49,1.18-.97,2.33-1.41,3.38-.1.24-.32.39-.58.39-.01,0-.03,0-.04,0-1.28-.09-1.83-.21-2.36-.33l-.28-.06-1.01-.17c-.18-.03-.35-.14-.44-.3-.11-.2-.22-.42-.33-.69l-.27-.04c-.21-.03-.38-.17-.47-.36-.59-1.31-.96-2.24-1.86-4.57-.01,1.1-.02,2.22-.03,3.31,0,1.18-.02,2.31-.03,3.36,0,.34-.28.62-.62.62-.26,0-.91,0-1.14-.04-1.01-.17-5.11-.79-6.87-.79-.22,0-.42-.11-.54-.3-.18-.29-.26-.51-.3-.67l-.03-.06c-.06,0-.12,0-.18,0-.22,0-.42-.12-.53-.3-.18-.29-.26-.51-.3-.67l-.18-.39c-.05-.11-.07-.24-.05-.36l3.77-23.46c.05-.31.31-.52.61-.52.03,0,.05,0,.08,0,3.43.45,5.94.68,8.16.75.23,0,.45.15.54.36l.31.68h.16c.24,0,.46.14.56.36.51,1.1,1.79,3.87,2.64,5.9l.17.41c.65-1.04,1.27-2.15,1.91-3.3l.18-.33c.11-.19.23-.42.37-.67.27-.48.57-1.03.78-1.38.1-.16.25-.27.44-.29,2.2-.34,7.16-.93,7.21-.94.02,0,.05,0,.07,0,.31,0,.58.23.62.55l.07.53c.15-.02.25-.04.25-.04.03,0,.07,0,.1,0,.13,0,.26.04.37.12.14.1.23.25.25.42l3.14,24.53c.03.2-.04.39-.19.53-.12.11-.27.17-.43.17"/>
    <path class="cls-2" d="M24.92,232.45l-.07-.86-.97-.17-.48-7.29c-1.1,2.73-2.42,5.8-3.45,8.32-1.45-.1-1.9-.24-2.56-.38l-1.04-.17c-.14-.24-.28-.55-.41-.93l-.62-.1c-.62-1.38-1-2.35-2-4.94l-1-2.56c-.07,3.25-.07,6.91-.1,9.85,0,0-.83,0-1.04-.04-1-.17-5.15-.79-6.98-.79-.1-.17-.28-.55-.21-.48l-.24-.52c-.21-.03-.41-.03-.59-.03-.1-.17-.28-.55-.21-.48l-.24-.52,3.77-23.46c3.7.48,6.15.69,8.22.76l.48,1.04h.55c.72,1.55,1.86,4.04,2.62,5.87l.62,1.52c.97-1.45,1.83-3.01,2.76-4.66.31-.55.83-1.52,1.14-2.04,2.21-.35,7.18-.93,7.18-.93l.14,1.14c.48-.03.9-.1.9-.1l3.14,24.52-9.33-1.55Z"/>
    <path class="cls-4" d="M32.14,231.86l-2.97-22.94s-3.94.48-6.15.83c-1.62,2.83-3.18,5.74-4.73,7.88-.38-.59-2.76-6.25-4.32-9.57-1.86-.07-4.01-.24-7.18-.66l-3.63,22.56.17.42c1.76,0,6.84.83,6.87.83.04-4.46.17-11.09.28-14.13,1.35,3.18,3.83,10.26,5.01,12.85.9.17,1.87.41,2.69.48,1.28-3.11,4.66-11.16,5.25-12.57l.83,12.71,7.88,1.31Z"/>
    <path class="cls-2" d="M45.02,234.73c-2.92,0-5.31-1.06-7.11-3.15-2.99-2.59-4.57-7.48-4.57-14.15,0-.05.09-5,1.61-10.7.04-.16.15-.3.3-.38.09-.05.2-.08.3-.08.06,0,.12,0,.18.03,1.54.45,4.09,1.11,5.67,1.48l3.11.76c.17.04.31.15.39.29.08.15.11.32.06.49,0,.04-.02.07-.03.11l.61.14c.33.08.54.4.47.74-.05.24-.1.49-.14.73-.08.45-.16.87-.26,1.19-.23.88-.49,1.9-.49,5.76v.14c0,.29.01,1.6.27,2.65,1.08-.4,1.36-2.38,1.61-5.05l.02-.18c.09-.93.14-1.86.14-2.77,0-.28,0-.55-.02-.82,0-.29-.02-.58-.02-.91-.04-.85-.07-2.53-.07-3.49,0-.34.27-.62.61-.62,0,0,5.81-.14,5.82-.14.16,0,.32.07.44.18l.69.69c.06.06.11.13.14.21.08.03.15.08.21.14l.69.69c.12.12.18.27.18.44v.41c0,1.35-.02,8.29-.42,12.05-1.03,8.47-4.73,13.13-10.4,13.13"/>
    <path class="cls-2" d="M55.21,209.13v.41c0,1.73-.04,8.4-.42,11.99-.73,5.94-3.11,12.57-9.77,12.57-2.9,0-5.08-1.11-6.67-2.97-3.11-2.66-4.39-7.77-4.39-13.71,0-.48.17-5.22,1.59-10.54,1.52.45,4.08,1.1,5.7,1.49l3.11.76c-.07.24-.1.52-.14.76l1.17.28c-.14.66-.24,1.42-.38,1.87-.28,1.07-.52,2.18-.52,5.94v.14c0,.48.03,2.21.45,3.35,2.18,0,2.42-3,2.69-5.87.1-1.07.14-2.04.14-2.83,0-.59-.03-1.11-.03-1.73-.03-.83-.07-2.49-.07-3.49l5.8-.14.69.69v.35h.35l.69.69Z"/>
    <path class="cls-4" d="M48.1,207.96c0,2.04.1,3.28.1,4.7,0,.79-.04,1.66-.14,2.73-.31,3.21-.55,6.49-3.39,6.49-2.18,0-2.18-5.04-2.18-5.22,0-5.08.48-5.46.79-7.32-1.73-.45-5.11-1.18-7.53-1.87-1.24,4.63-1.38,9.19-1.38,9.67,0,8.29,2.56,14.96,9.33,14.96,6.32,0,8.46-6.18,9.09-11.95.38-3.59.41-10.22.41-11.92v-.41l-5.11.14Z"/>
    <path class="cls-2" d="M57.22,234.28c-.16,0-.32-.06-.43-.17-.12-.12-.19-.28-.19-.45,0,0,0-.16,0-.43,0,0-.4.01-.4.01-.16,0-.31-.06-.43-.17-.12-.12-.19-.27-.19-.44-.02-.87-.41-21.4-.41-22.02,0-.34.26-.61.6-.62,2.33-.09,5.15-.29,7.21-.44l1.1-.08s1.8-.07,1.81-.07c.17,0,.34.07.45.2.12.13.18.31.17.49l-.04.38s.44-.03.45-.03c.17,0,.33.07.45.19.13.13.19.31.17.49l-1.28,13.02c1.44-.09,3.42-.16,4.93-.19h.01c.16,0,.32.06.44.18.12.12.19.28.19.45v.41c.14,0,.28,0,.41,0,.34,0,.62.28.62.62v7.5c0,.34-.26.61-.6.62,0,0-15.01.55-15.01.55"/>
    <path class="cls-2" d="M57.22,233.66s0-.45-.04-1.07l-1,.04s-.41-21.38-.41-22c2.8-.1,6.36-.38,8.32-.52l1.76-.07-.1,1.11,1.14-.07-1.35,13.75c1.45-.1,3.9-.21,5.63-.24v1.07c.35-.04.69-.04,1.04-.04v7.5l-14.99.55Z"/>
    <path class="cls-4" d="M70.21,231.14v-6.15c-2.73.03-5.29.28-6.84.35l1.45-14.89c-1.9.14-5.35.41-8.64.55,0,.62.42,20.62.42,20.62l13.61-.48Z"/>
    <path class="cls-2" d="M79.33,234.59c-.14,0-.28-.05-.4-.14-.15-.12-.23-.3-.23-.48,0-.1,0-.24.01-.42,0-.02,0-.05,0-.08-.18.04-.27.07-.28.07-.05.01-.1.02-.15.02-.14,0-.28-.05-.39-.13-.15-.12-.24-.3-.24-.5l.16-12.76c-1.1.07-2.32.12-3.5.16,0,0-.87.04-.88.04-.16,0-.32-.06-.43-.17-.12-.12-.19-.28-.19-.45v-.42c-.14,0-.28.01-.41.01-.17,0-.32-.07-.44-.18-.12-.12-.18-.28-.18-.44,0-.4.04-9.76.25-11.77.03-.32.3-.56.62-.56.01,0,.02,0,.04,0l19.86,1.14c.33.02.59.29.59.62v.4h.43c.33.02.59.29.6.62l.17,6.7c0,.15-.05.29-.14.4l-.55.69c-.09.12-.22.19-.36.22-.9.18-4.26.7-5.93.95.49,4.34,1.65,13.88,1.66,13.97.04.33-.18.63-.51.69-1.12.2-8.99,1.78-9.07,1.79-.04,0-.08.01-.12.01"/>
    <path class="cls-2" d="M93.18,216.56c-.86.17-4.21.69-6.49,1.04.45,4.04,1.73,14.58,1.73,14.58-1.14.21-9.08,1.8-9.08,1.8,0-.24.04-.73.04-1.28-.66.14-1.07.24-1.07.24l.17-13.44c-1.52.1-3.39.17-5.01.24v-1.07c-.35,0-.69.04-1.04.04,0,0,.03-9.71.24-11.71l19.86,1.14v1l1.04.03.17,6.7-.55.69Z"/>
    <path class="cls-4" d="M91.56,208.51l-18.55-1.07c-.14,1.35-.17,10.26-.17,10.26,2.35-.1,4.59-.24,6.04-.35,0,0-.1,12.64-.14,14.44,0,0,6.46-1.31,7.6-1.52,0,0-1.31-10.81-1.73-14.58,2.28-.35,6.25-.97,7.12-1.14l-.17-6.05Z"/>
    <path class="cls-2" d="M114.11,234.52c-1.24-.07-15.3-1.35-18.71-1.87-.33-.05-.57-.36-.53-.69l.03-.26c-.21-.03-.4-.06-.58-.1-.31-.07-.52-.37-.48-.69.24-1.94.59-6.29.65-7.35.02-.33.29-.58.62-.58h.03c.65.03,2.37.08,3.63.1v-5.56l-1.87.18s-.04,0-.06,0c-.3,0-.56-.21-.61-.51-.03-.18-.07-.36-.1-.55l-.28.02s-.03,0-.05,0c-.3,0-.57-.22-.62-.52-.25-1.54-.32-2.65-.39-3.72-.03-.59-.15-1.76-.22-2.46l-.02-.21c-.02-.17.03-.33.14-.46.1-.13.26-.21.42-.23,6.72-.66,19.55-1.91,19.98-1.97.02,0,.05,0,.08,0,.15,0,.3.05.41.16.13.12.21.29.21.47v.46c.27-.04.35-.05.41-.05.35,0,.62.28.62.62v6.94c0,.15-.06.3-.16.42l-.62.69c-.1.11-.24.18-.39.2-.87.11-2.42.17-4.62.18-.11,1.11-.24,2.16-.36,3.17-.11.88-.21,1.79-.31,2.74l2.77.03c.32,0,.59.25.62.57,0,0,.03.35.04.47h.37c.32,0,.59.25.62.57.11,1.17.11,1.89.11,2.89,0,1.49-.07,4.24-.14,6.31,0,.17-.08.33-.2.44-.11.11-.27.16-.42.16-.01,0-.02,0-.03,0"/>
    <path class="cls-2" d="M115.6,216.38c-.83.1-2.45.17-5.11.17-.24,2.56-.55,4.66-.79,7.15l3.46.03c.03.38.07.73.07,1.04h.97c.1,1.14.1,1.83.1,2.83,0,1.45-.07,4.15-.14,6.29-1.28-.07-15.23-1.35-18.65-1.87l.1-.86c-.45-.07-.83-.1-1.14-.17.24-1.97.59-6.29.66-7.39.73.03,3.01.1,4.28.1v-6.87l-2.56.24c-.07-.38-.14-.76-.17-1.1l-.86.07c-.24-1.49-.31-2.56-.38-3.66-.04-.66-.17-2-.24-2.69,0,0,19.45-1.9,20-1.97v1.17c.52-.07.97-.14,1.04-.14v6.94l-.62.69Z"/>
    <path class="cls-4" d="M114.22,208.23c-.55.07-18.55,1.8-18.55,1.8.17,1.76.24,3.52.45,4.97,1.62-.1,2.52-.28,3.7-.35,0,1.45.03,3.66.03,5.67,0,1.52-.03,2.9-.07,3.8-1.28,0-3.56-.04-4.28-.07-.07,1.1-.31,4.11-.55,6.08,3.18.48,16.06,1.66,17.24,1.73.07-2.14.1-4.11.1-5.56,0-1.04,0-1.76-.04-2.14l-4.7-.1.97-9.5c3.25,0,4.77-.07,5.7-.17v-6.15Z"/>
    <path class="cls-2" d="M129.62,234.49c-.32,0-.59-.24-.62-.56l-.05-.49c-.16.01-.28.02-.37.02-.32,0-.59-.24-.62-.57l-2.24-23.63c-.02-.26.11-.5.34-.62,1.68-.84,4.55-1.29,8.53-1.34h.2c2.13,0,9.36.34,13.1,4.71,2.09,1.79,3.15,4.11,3.15,6.9,0,5.48-2.94,8.65-8.73,9.43-.38.04-.74.07-1.12.07-.55,0-1.07-.05-1.56-.12.07.31.13.62.2.92l.86,3.65c.04.18,0,.36-.1.51-.11.15-.27.24-.45.26-.39.04-9.57.87-10.52.87"/>
    <path class="cls-2" d="M142.23,227.71c-.35.04-.69.07-1.04.07-.86,0-1.66-.14-2.35-.28.1.59.24,1.21.38,1.83l.86,3.66s-9.53.86-10.47.86l-.1-1.11c-.45.03-.79.07-.93.07l-2.25-23.63c.9-.45,2.97-1.21,8.26-1.28,4.46-.03,9.98,1.14,12.85,4.53,1.8,1.52,2.97,3.63,2.97,6.46,0,5.94-3.56,8.19-8.19,8.81"/>
    <path class="cls-4" d="M134.32,208.34c-5.11.07-6.84.66-7.53,1l2.14,22.52c.21,0,8.98-.79,8.98-.79-.35-1.69-.93-4.15-1.28-5.84.69.21,1.93.55,3.28.55.31,0,.62-.03.93-.07,4.28-.55,7.57-2.62,7.57-8.12,0-7.08-8.05-9.33-14.09-9.26"/>
    <path class="cls-2" d="M138.09,219.46c-.11,0-.22-.03-.31-.08-.19-.11-.31-.32-.31-.54v-.83c0-.64,0-1.44-.03-2.33-.01-.31.21-.59.52-.64.26-.04.4-.04.45-.04,1.07,0,1.42.1,1.81.25.19.07.34.23.39.43l.02.06c.03.12.07.28.07.47,0,1.24-.77,2.31-2.28,3.17-.1.05-.2.08-.31.08"/>
    <path class="cls-2" d="M139.99,215.83c-.28-.1-.55-.21-1.59-.21-.04,0-.14,0-.35.03.04.9.04,1.69.04,2.35v.83c1.04-.59,1.97-1.42,1.97-2.62,0-.14-.03-.24-.07-.38"/>
    <path class="cls-2" d="M183.09,234.59c-.14,0-.28-.05-.4-.14-.14-.12-.23-.3-.23-.48,0-.1,0-.24.01-.42,0-.02,0-.05,0-.08-.18.04-.27.07-.28.07-.05.01-.1.02-.15.02-.14,0-.28-.05-.39-.13-.15-.12-.24-.3-.24-.5l.16-12.76c-1.1.07-2.32.12-3.5.16,0,0-.87.04-.88.04-.16,0-.32-.06-.43-.17-.12-.12-.19-.28-.19-.45v-.42c-.14,0-.28.01-.41.01-.17,0-.32-.07-.44-.18-.12-.12-.18-.28-.18-.44,0-.4.04-9.76.24-11.77.03-.32.3-.56.62-.56.01,0,.02,0,.04,0l19.86,1.14c.33.02.59.29.59.62v.4h.43c.33.02.59.29.6.62l.17,6.7c0,.15-.05.29-.14.4l-.55.69c-.09.12-.22.19-.36.22-.9.18-4.26.7-5.93.95.49,4.34,1.65,13.88,1.66,13.97.04.33-.18.63-.51.69-1.12.2-8.99,1.78-9.07,1.79-.04,0-.08.01-.12.01"/>
    <path class="cls-2" d="M196.94,216.56c-.86.17-4.21.69-6.49,1.04.45,4.04,1.73,14.58,1.73,14.58-1.14.21-9.08,1.8-9.08,1.8,0-.24.04-.73.04-1.28-.66.14-1.07.24-1.07.24l.17-13.44c-1.52.1-3.39.17-5.01.24v-1.07c-.35,0-.69.04-1.04.04,0,0,.03-9.71.24-11.71l19.86,1.14v1l1.04.03.17,6.7-.55.69Z"/>
    <path class="cls-4" d="M195.32,208.51l-18.55-1.07c-.14,1.35-.17,10.26-.17,10.26,2.35-.1,4.59-.24,6.05-.35,0,0-.1,12.64-.14,14.44,0,0,6.46-1.31,7.6-1.52,0,0-1.31-10.81-1.73-14.58,2.28-.35,6.25-.97,7.12-1.14l-.17-6.05Z"/>
    <path class="cls-2" d="M205.34,234.59c-.14,0-.28-.05-.4-.14-.14-.12-.23-.3-.23-.48,0-.1,0-.24.01-.42,0-.03,0-.05,0-.08-.18.04-.27.07-.28.07-.05.01-.1.02-.15.02-.14,0-.28-.05-.39-.13-.15-.12-.24-.3-.24-.5l.16-12.76c-1.1.07-2.32.12-3.5.16,0,0-.87.04-.87.04-.16,0-.32-.06-.43-.17-.12-.12-.19-.28-.19-.45v-.42c-.14,0-.28.01-.41.01-.17,0-.32-.07-.44-.18-.12-.12-.18-.28-.18-.44,0-.4.04-9.76.24-11.77.03-.32.3-.56.62-.56.01,0,.02,0,.04,0l19.86,1.14c.33.02.59.29.59.62v.4h.43c.33.02.59.29.6.62l.17,6.7c0,.15-.05.29-.14.4l-.55.69c-.09.12-.22.19-.36.22-.9.18-4.26.7-5.93.95.49,4.34,1.65,13.88,1.66,13.97.04.33-.18.63-.51.69-1.12.2-8.99,1.78-9.08,1.79-.04,0-.08.01-.12.01"/>
    <path class="cls-2" d="M219.19,216.56c-.86.17-4.21.69-6.49,1.04.45,4.04,1.73,14.58,1.73,14.58-1.14.21-9.08,1.8-9.08,1.8,0-.24.04-.73.04-1.28-.66.14-1.07.24-1.07.24l.17-13.44c-1.52.1-3.39.17-5.01.24v-1.07c-.34,0-.69.04-1.04.04,0,0,.03-9.71.24-11.71l19.86,1.14v1l1.04.03.17,6.7-.55.69Z"/>
    <path class="cls-4" d="M217.57,208.51l-18.55-1.07c-.14,1.35-.17,10.26-.17,10.26,2.35-.1,4.59-.24,6.05-.35,0,0-.1,12.64-.14,14.44,0,0,6.46-1.31,7.6-1.52,0,0-1.31-10.81-1.73-14.58,2.28-.35,6.25-.97,7.12-1.14l-.17-6.05Z"/>
    <path class="cls-2" d="M237.58,234.38c-1.8-.17-10.06-1.02-14.68-1.73-.29-.04-.5-.28-.53-.57l-.03-.38-.49-.09c-.28-.05-.49-.29-.51-.57l-1.55-22.63c-.02-.33.21-.62.54-.66,1.06-.14,7.72-.94,14.28-1.66.02,0,.05,0,.07,0,.27,0,.52.18.6.44.06.2.11.41.15.62l.2-.03s.05,0,.08,0c.27,0,.52.18.6.44.38,1.26.59,3.33.68,4.45l.14,1.69c.02.2-.06.39-.21.52-.11.1-.26.16-.42.16-.03,0-.06,0-.09,0-.02,0-.03,0-.06,0-.8,0-4.62.31-6.52.46.06.26.13.57.2.93l1.8-.31,1.32-.21s.07,0,.1,0c.13,0,.26.04.37.12.13.1.22.25.25.41l.08.55.24-.04s.07,0,.1,0c.3,0,.56.21.61.52.11.63.35,2.18.45,2.96l.22,1.76c.46-.07.82-.13,1.03-.18.05-.01.09-.02.14-.02.13,0,.27.04.37.12.15.11.24.28.25.46l.03.52c.08-.01.16-.03.21-.05.06-.02.11-.02.17-.02.13,0,.25.04.36.11.15.11.25.28.26.47l.62,10.05c.01.18-.06.36-.19.49l-.76.72c-.12.11-.27.17-.43.17-.02,0-.04,0-.06,0"/>
    <path class="cls-2" d="M237.64,233.76c-1.45-.14-9.95-1-14.65-1.73l-.07-.86-.97-.17-1.55-22.62c1.04-.14,7.7-.93,14.27-1.66.1.35.17.73.24,1.14l.79-.1c.35,1.14.55,3.04.66,4.32l.14,1.69c-.35-.07-5.77.38-7.46.52,0,0,.28.9.48,2.21l2.42-.41,1.31-.21.17,1.17.86-.14c.1.59.35,2.14.45,2.94l.28,2.21c-.21.07-.45.14-.69.24,1.04-.1,1.97-.24,2.42-.35l.07,1.21c.38-.07.73-.1.97-.17l.62,10.05-.76.72Z"/>
    <path class="cls-4" d="M235.81,222.54c-.97.21-5.25.59-6.08.55,0-.24-.1-.86-.24-1.42,1.07-.41,2.35-1,3.45-1.42-.14-.9-.35-2.8-.52-3.87-2.59.41-3.56.59-4.66.59-.21-1.9-.42-4.32-.42-4.32,1.66-.14,7.05-.59,7.12-.62-.1-.86-.31-3.97-.55-4.84-6.56.72-12.02,1.38-13.06,1.52l1.48,21.38c4.7.73,12.61,1.52,14.06,1.66l-.59-9.22Z"/>
    <path class="cls-2" d="M250.49,234.14c-4.61,0-8.25-2.3-11.5-4.79-.14-.11-.22-.26-.24-.42-.27-.2-.54-.4-.81-.62-.23-.19-.3-.52-.15-.78l4.63-8.57c.09-.16.24-.28.42-.31.04,0,.08-.01.13-.01.14,0,.28.05.39.13.95.75,4.25,3.18,7.14,3.18,1.68,0,1.97-.16,1.97-.52v-.03c-.87-.45-2.19-.8-3.47-1.13-2.43-.64-5.17-1.36-6.45-3.13-1.17-.87-1.76-2.01-1.76-3.38,0-6.04,7.86-6.77,13.07-7.25l.96-.1c.87-.07,2.1-.07,3-.07h1c.34,0,.62.28.62.62v.41h.41c.35,0,.62.28.62.62,0,.37.01.9.02,1.4,0,.44.01.85.01,1.09s0,.46.02.67c0,.22.02.44.02.67,0,.46-.07,1.75-.09,2.25.85.52,1.56,1.12,2.15,1.82,2.08,1.72,2.98,4.13,2.81,7.59-.33,6.1-5.18,9.86-13.66,10.61-.37.04-.91.04-1.26.04"/>
    <path class="cls-2" d="M251.7,233.48c-.35.04-.86.04-1.21.04-4.32,0-7.74-2.07-11.12-4.66l.1-.17c-.38-.28-.76-.55-1.14-.86l4.63-8.57c.66.52,4.28,3.32,7.53,3.32,1.38,0,2.59-.03,2.59-1.14,0-.17-.04-.31-.1-.45-.93-.55-2.38-.93-3.83-1.31-2.49-.66-5.04-1.35-6.15-2.97-.97-.69-1.59-1.62-1.59-2.94,0-5.35,6.94-6.11,12.51-6.63l.97-.1c.83-.07,2.07-.07,2.94-.07h1v1.04h1.04c0,.69.04,1.97.04,2.49,0,.48.03.9.03,1.35s-.07,1.8-.1,2.42l-.48-.07c1.24.62,2.14,1.35,2.83,2.18,2.21,1.8,2.76,4.28,2.63,7.12-.38,6.94-6.8,9.46-13.09,10.02"/>
    <path class="cls-4" d="M258.5,214.38c-4.28-1.93-7.77-.55-7.77-2.21,0-.72,1.24-1.14,2.24-1.1.76.03,2.14.21,4.87,1.04.03-.66.07-1.17.07-1.66,0-.97-.07-1.76-.07-3.07h-.76c-.69,0-1.66,0-2.42.07-5.49.52-12.85.86-12.85,6.04s11.68,3.45,11.68,7.67c0,1.76-1.52,1.83-3.28,1.83-3.7,0-7.08-2.83-7.36-3.04l-3.9,7.43c3.28,2.52,6.67,4.49,11.36,4.11,6.04-.48,12.12-2.8,12.47-9.36.17-3.28-.62-6.08-4.28-7.74"/>
    <path class="cls-2" d="M172.49,222.78c-.09,0-.18,0-.27-.01-.95-.1-1.81-.74-2.37-1.77-1.29-.66-2.11-2.34-2.12-4.28-.32.14-.65.21-.99.22h-.03c-1.07,0-2.06-.67-2.73-1.84-1.3-.72-2.19-2.48-2.24-4.48-.04-1.59.46-3.1,1.35-4.01.57-.59,1.25-.91,1.98-.92,0,0,.03,0,.04,0,1.07,0,2.06.67,2.73,1.84,1.28.71,2.17,2.45,2.24,4.42.4-.21.83-.33,1.27-.33.09,0,.18,0,.27.01.95.1,1.81.74,2.37,1.77,1.42.73,2.27,2.7,2.09,4.89-.21,2.56-1.75,4.49-3.57,4.49"/>
    <path class="cls-2" d="M173.52,213.87c-.44-.92-1.15-1.54-1.98-1.63-.84-.09-1.63.38-2.22,1.2.1-.45.14-.93.13-1.43-.05-1.9-.92-3.49-2.07-4.03-.54-1.03-1.38-1.69-2.3-1.68-1.56.02-2.77,1.94-2.71,4.29.05,1.9.92,3.5,2.07,4.03.54,1.03,1.38,1.69,2.3,1.68.68,0,1.3-.39,1.77-1-.06.27-.1.55-.13.85-.17,2.04.67,3.85,1.93,4.37.44.92,1.14,1.54,1.98,1.63,1.55.17,2.96-1.58,3.15-3.9.17-2.04-.67-3.85-1.93-4.37"/>
    <path class="cls-2" d="M160.43,234.15s-.05,0-.08,0l-.56-.07s-.09-.01-.13-.03l-.77-.26s-.06-.02-.09-.04l-.68-.36s-.07-.04-.1-.07l-.53-.43s-.04-.03-.06-.05l-.42-.45s-.05-.06-.07-.09l-.25-.39h0s-.07-.05-.1-.07l-.53-.43s-.04-.03-.06-.05l-.42-.45s-.05-.06-.07-.1l-.43-.67s-.03-.05-.04-.08l-.33-.74s-.02-.06-.03-.09l-.15-.54s-.02-.07-.02-.11l-.08-.83s0-.04,0-.07v-.75s.01-.03.01-.05l.08-.85s.01-.09.03-.14l.23-.7s.02-.06.04-.09l.17-.34c-.89-.26-1.75-.95-2.41-1.95-.94-.62-1.72-1.69-2.16-2.96-.88-2.56-.16-5.09,1.64-5.76.29-.11.59-.16.89-.16,1.17,0,2.37.77,3.22,2.07.9.6,1.66,1.61,2.11,2.82l.17-.45s0-.02.01-.04l.27-.59s.04-.08.07-.11l.07-.1c-.73-.31-1.41-.91-1.93-1.75-1.08-.68-1.92-1.99-2.28-3.54-.61-2.66.38-5.1,2.25-5.56.19-.05.39-.07.59-.07,1.11,0,2.23.74,3.01,1.98,1.08.68,1.92,1.99,2.28,3.54.26,1.13.23,2.26-.07,3.21h.43s.09.01.13.02l.62.15s.03,0,.05.01l.49.16s.08.03.12.06l.43.25s.04.02.05.04l.32.24.35.28s.04.04.06.06l.49.52s.03.03.04.05l.35.46.16.12.35.28s.04.04.06.06l.49.52s.03.03.04.05l.44.59s.02.02.02.03l.36.54.31.51.45.67.03.03.4.31.66.49.58.43s.05.04.08.07l.45.47s.05.05.06.08l.35.51.49.37s.06.04.08.07l.45.47s.04.05.06.08l.35.51s.03.04.04.06l.14.26.22.43s.01.02.02.04l.11.27s.02.06.03.09c0,0,.16.62.16.63l.07.35s0,.03,0,.04l.08.63s0,.05,0,.08v.61s0,.06,0,.1l-.12.74s-.01.06-.02.09l-.24.78s-.03.07-.05.11l-.32.6s-.03.05-.05.07l-.47.64s-.05.06-.07.08l-.47.45s-.06.05-.09.07l-.68.45s-.06.04-.1.05l-.55.24s-.08.03-.12.04l-.36.07s-.06,0-.08.01l-.44.03s-.03,0-.04,0c-.02,0-.04,0-.05,0l-.53-.04s-.09-.01-.13-.03l-.57-.18s-.05-.02-.07-.03l-.58-.26s-.02-.01-.03-.02l-.61-.32-.74-.28-.55-.2-.28-.03-.41-.02-.27.05-.26.11-.27.18-.37.23-.32.27-.41.33-.41.32-.15.16s-.06.06-.1.08l-.46.31s-.08.05-.13.07l-.78.29c-.05.02-.11.03-.16.04l-.83.08s-.04,0-.06,0"/>
    <path class="cls-2" d="M173.56,227.16l-.07-.35-.15-.59-.11-.26-.21-.42-.14-.26-.35-.51-.45-.47-.58-.43h-.02s-.03-.08-.03-.08l-.35-.51-.45-.47-.58-.43-.67-.5-.45-.35-.09-.11-.48-.72-.3-.49-.36-.54-.44-.59-.49-.52-.32-.26-.23-.17-.4-.53-.49-.52-.32-.27-.32-.24-.43-.25-.49-.16-.62-.15h-.61s-.62.07-.62.07l-.23.06c.61-.92.83-2.35.49-3.84-.34-1.5-1.17-2.68-2.12-3.22-.76-1.29-1.92-2.02-3.01-1.76-1.51.37-2.32,2.52-1.79,4.81.34,1.5,1.17,2.68,2.12,3.22.67,1.13,1.65,1.83,2.62,1.81l-.23.22-.47.65-.27.59-.26.67-.32,1.02-.31.9-.08.15c.03-.68-.07-1.43-.33-2.17-.43-1.24-1.18-2.2-2.02-2.71-.9-1.44-2.28-2.21-3.44-1.78-1.46.55-2.03,2.77-1.27,4.98.43,1.24,1.18,2.2,2.02,2.71.81,1.3,2.01,2.05,3.09,1.87l-.29.37-.14.16-.32.62-.23.7-.08.85v.75s.07.83.07.83l.15.54.33.74.43.67.43.45.53.43.15.08.33.53.42.45.53.43.68.36.77.26.56.07.83-.08.78-.29.46-.31.19-.19.43-.33.4-.33.36-.3.39-.24.32-.21.37-.16.41-.08.5.02.37.04.63.23.77.29.65.34.58.26.57.18.53.04.44-.03.36-.07.55-.24.68-.45.47-.45.47-.64.32-.6.24-.78.12-.74v-.61s-.08-.63-.08-.63Z"/>
    <polygon class="cls-4" points="170.07 224.54 169.97 224.31 169.79 223.94 169.67 223.71 169.36 223.26 168.97 222.85 168.47 222.47 167.9 222.03 167.42 221.65 166.96 221.22 166.57 220.78 166.19 220.32 165.78 219.69 165.52 219.26 165.21 218.78 164.83 218.27 164.41 217.81 164.13 217.58 163.86 217.37 163.49 217.15 163.07 217.01 162.53 216.88 162.01 216.87 161.48 216.94 160.98 217.07 160.28 217.45 159.64 218.07 159.24 218.64 159.01 219.15 158.79 219.74 158.52 220.63 158.26 221.42 157.93 222.04 157.53 222.78 156.26 224.4 156.15 224.54 155.88 225.08 155.68 225.69 155.62 226.43 155.61 227.09 155.68 227.82 155.81 228.29 156.09 228.93 156.46 229.52 156.82 229.92 157.28 230.3 157.86 230.61 158.52 230.85 159 230.91 159.72 230.84 160.38 230.59 160.78 230.32 160.94 230.15 161.31 229.86 161.65 229.58 161.96 229.32 162.29 229.1 162.56 228.92 162.89 228.79 163.24 228.72 163.67 228.74 163.99 228.77 164.53 228.97 165.2 229.23 165.75 229.52 166.26 229.75 166.75 229.91 167.21 229.95 167.59 229.92 167.89 229.86 168.36 229.66 168.95 229.27 169.35 228.87 169.75 228.31 170.02 227.79 170.23 227.1 170.33 226.46 170.33 225.92 170.26 225.37 170.2 225.06 170.07 224.54"/>
    <path class="cls-4" d="M164.91,206.71c1.29-.01,2.38,1.58,2.44,3.57.06,1.99-.95,3.61-2.24,3.62-1.29.01-2.38-1.58-2.43-3.57-.06-1.98.95-3.6,2.24-3.62"/>
    <path class="cls-4" d="M159.92,210.46c.44,1.94-.22,3.75-1.47,4.06-1.25.3-2.62-1.02-3.06-2.95-.44-1.94.22-3.75,1.47-4.06,1.25-.31,2.62,1.02,3.06,2.95"/>
    <path class="cls-4" d="M171.26,212.5c1.29.14,2.2,1.85,2.05,3.81-.15,1.96-1.32,3.43-2.6,3.29-1.29-.14-2.21-1.85-2.05-3.81.15-1.96,1.32-3.43,2.61-3.29"/>
    <path class="cls-4" d="M155.61,217.51c.63,1.86.17,3.74-1.04,4.2-1.21.46-2.71-.68-3.34-2.54-.63-1.86-.17-3.74,1.04-4.2,1.21-.46,2.71.68,3.34,2.54"/>
    <path class="cls-2" d="M213.31,91.53c3.12-1.41,6.19-2.48,9.37-3.62,3.17-1.08,6.31-2.26,9.6-2.98-4.45,4.54-12.66,7.53-18.97,6.6"/>
    <path class="cls-2" d="M206.13,86.87c3.52-1.89,7.3-2.03,11.21-1.94-2.25,3.02-7.97,3.53-11.21,1.94"/>
    <path class="cls-2" d="M53.21,166.24c1.17,3.39-.16,7.42-2.74,9.81-.89.82-1.97,1.43-3.16,1.68.14-.28.28-.55.42-.79,2.14-3.48,3.54-7.07,5.48-10.7"/>
    <path class="cls-2" d="M60.37,166.24c.97,2.43.14,5.18-1.55,7.05-.6.64-1.32,1.17-2.17,1.43.07-.94.28-1.68.47-2.42.7-2.26,1.59-4.25,3.24-6.06"/>
    <path class="cls-2" d="M8.5,176.67c-.14-.38-.28-.75-.42-1.13.14.38.27.76.42,1.13"/>
    <path class="cls-2" d="M8.08,175.53c-.09-.25-.18-.51-.27-.76.09.26.18.51.27.76"/>
    <path class="cls-2" d="M7.81,174.77c-.1-.29-.21-.59-.31-.88.1.29.2.59.31.88"/>
    <path class="cls-2" d="M7.12,172.79c-.04-.11-.08-.23-.11-.34.04.11.08.23.11.34"/>
    <path class="cls-2" d="M7.5,173.89c-.13-.37-.25-.73-.38-1.1.12.37.25.73.38,1.1"/>
    <path class="cls-2" d="M10.2,180.99c-.12-.3-.24-.6-.37-.9.12.3.24.6.37.9"/>
    <path class="cls-2" d="M10.39,181.46c-.07-.16-.13-.31-.2-.47.07.16.13.31.2.47"/>
    <path class="cls-2" d="M9.83,180.1c-.13-.32-.26-.65-.39-.97.13.32.26.65.39.97"/>
    <path class="cls-2" d="M8.73,177.3c-.08-.21-.16-.42-.24-.63.08.21.16.42.24.63"/>
    <path class="cls-2" d="M9.18,178.46c-.15-.39-.3-.77-.45-1.16.15.39.3.78.45,1.16"/>
    <path class="cls-2" d="M9.44,179.13c-.09-.22-.17-.44-.26-.67.09.22.17.45.26.67"/>
    <path class="cls-2" d="M10.39,181.46c2.01,4.81,4.32,9.5,6.91,14.04h.03c-2.63-4.58-4.94-9.27-6.94-14.04"/>
    <path class="cls-2" d="M67.63,244.91h-.13c20.96,11.56,45.04,17.48,69.07,16.29,21.54-1.03,41.05-6.89,57.91-16.29h-2.85c-38.55,21.04-85.76,20.76-124,0"/>
    <path class="cls-2" d="M75.1,14.44c54.89-25.91,122.42-8.82,158.25,40.2,30.88,41.11,33.24,97.3,8.5,140.86h2.31c24.09-42.24,24.96-97.44-8.3-142.71C173.01-31.14,42.9-11.54,7.58,87.15c-9.84,27.37-9.75,57.85-.57,85.3C-13.01,112.29,13.99,42.65,75.1,14.44"/>
    <path class="cls-5" d="M217.75,112.72s22.4-12.17,26.74-16.57c3.85-3.92,6.28-6.43,7.99-8.36-.76-2.15-1.58-4.28-2.45-6.38-15.93,12.64-33.85,17.33-35.06,17.55-1.3.24-2.65-.47-19.5-5.83s-37.68.68-40.72,1.74c-3.04,1.06-6.92-.03-9.49-.5-2.56-.47-26.69-8.81-27.13-9.02s-2.03-1.21-2.03-1.21c-3.33-6.1-13.14-13.11-15.53-14.58-2.39-1.47-11.4-3.18-11.4-3.18-3.54-3.74-11.28-7.51-11.28-7.51,0,0-.18-9.22-.53-10.08-.35-.86-10.02,4.45-10.37,4.6-.35.15-2.21.74-2.42.15-.21-.59-3.21-4.92-3.77-5.48s-7.57,6.1-7.57,6.1c-3.68.65-13.35,5.39-13.35,5.39,0,0-5.69,15.11-7.35,15.45-7.06,1.42-9.45,5.23-10.65,5.47-1.21.24-1.88,3.37.06,9.55,1.94,6.18,9.66,12.02,10.96,12.02s23.98-3.12,23.98-3.12l11.55,12.55s-5.13,13.55-5.83,15.03c-.26.54-2.89,3.55-6.2,7.26,3.93.22,8.07.34,12.44.34,73.54,0,68.94-22.63,119.5-22.63,11.01,0,20.62.74,29.01,1.98l.41-.7Z"/>
    <path class="cls-3" d="M258.76,182.39l-.8-7.88-10.03-4.95s-4.28-3.36-8.66-8.49c-4.39-5.12-8.48-13.57-8.48-13.57l-.84-9.68-5.08-1.64-2.61-2.3-6.54-6.19-3.54-5.48,5.16-8.8c-8.39-1.24-18.01-1.98-29.01-1.98-50.56,0-45.96,22.63-119.5,22.63-4.37,0-8.51-.12-12.44-.34-5.73,6.43-13.5,14.97-14.54,16.42-1.65,2.3-11.49,11.05-18.86,15.31-7.37,4.26-10.66,9.25-10.66,9.25.03,2.25-1.05,4.43.76,6.43,1.22,1.35,8.07.77,10.72,1.18,2.65.41,7.19-1.47,7.37-1.59.18-.12,2.65-1.65,4.12-3.18,1.47-1.53,4.48-4.18,4.48-5.42s1.03-5.02,1.03-5.02l.34.04,3.4-3.39,10.03-6.05,16.4-4.15,9.85-8.24,1.81-1.78s7.98,5.05,8.22,5.2c.24.15,4.2,1.87,4.2,1.87,0,0,.5,4.58,1.38,10.99.88,6.41,4.15,12.86,6.05,15.38,1.9,2.52,20.73,13.44,20.73,13.44,0,0,3.58,1.8,4.02.48.44-1.33,1.02-9.99.84-11.93-.18-1.94-2.78-4.86-2.78-4.86l-6.28-1.77-1.02-1.06-5.21-10.16-1.24-8.26,3.8.84,7.37-.03,9.9-7.04,20.83-8.04-.71,9.87,2.42,9.49,8.72,10.84s1.42,1.83,1.06,3.45c-.35,1.62-8.13,11.23-9.73,12.81-1.6,1.58-6.07,2.52-6.07,2.52-5.21.4-6.66,1.29-6.89,1.67-.23.37-.27,4.71-.27,4.71,0,0,21.61.12,22.14,0,.53-.12,1.51-3.54,4.12-6.95,7.48-9.76,19.45-16.26,19.45-16.26-2.24-2.3-4.48-8.54-5.07-11.9-.59-3.36,3.24-11.96,3.24-11.96,0,0,23.92,11.67,25.93,12.61,2,.94,14.14,6.36,18.03,8.9,3.89,2.53,18.78,17.41,20.24,19.09,1.46,1.68,3.89,2.34,6.1,2.7,2.21.35,8.4-1.1,8.4-1.1l-5.79-6.66Z"/>
    <path class="cls-5" d="M258.67,78.72c8.15-13.95-5.52.07-5.52.07-1.03.9-2.07,1.77-3.12,2.61.87,2.1,1.69,4.23,2.45,6.38,2.98-3.36,3.8-4.96,6.2-9.06"/>
    <path class="cls-2" d="M265.36,189.16c.34-.09.68-.19,1.02-.28l-.05-.24c-.45.06-.91.12-1.36.19-.48-.42-.92-.86-1.35-1.33-1.66-1.85-2.98-3.97-4.06-6.2l-.05-.11s0-.02,0-.03c0-.02,0-.04,0-.07-.06-.6.02-1.32.06-2.13.08-1.83-.14-4.04-1.62-5.43-1.61-1.38-3.6-2.14-5.52-2.92-1.59-.6-3.21-1.13-4.84-1.57-2.07-1.89-4.04-3.89-5.89-5.99-3.79-4.33-7.09-9.06-9.76-14.14-.96-1.54-.83-3.42-.83-5.2.03-1.58.2-3.16.19-4.76,0-.21-.03-.43-.1-.62-.75-2.12-4.1-2.96-6.19-3.46-4.68-3.37-8.79-7.57-11.94-12.39.44-1.21.96-2.45,1.52-3.64.61-1.26,1.28-2.5,2.06-3.59.61-.82,1.23-1.6,2.12-2.01,12.12-5.66,23.55-13.28,32.45-23.34,3.81-4.39,7.06-9.33,9.14-14.75-7.57,17.11-25.06,28.52-41.62,35.88-.15.06-.58.24-.72.3-1.3.5-2.3,1.58-3.11,2.61-1.41,1.87-2.48,3.84-3.41,5.93-1.4-2.52-2.54-5.17-3.37-7.95l-.25.03c.13,2.55.79,5.02,1.64,7.42,2.64,7.23,7.78,13.54,14.32,17.6l.24.15c.95.13,1.95.34,2.87.62.72.23,1.62.56,2.13,1.03.13.14.17.17.17.28.07,1.54-.04,3.08-.02,4.65.05,1.79.03,3.72.88,5.39,4.25,7.49,9.89,14.2,16.5,19.71-.83-.2-1.67-.38-2.52-.53,3.92,2.4,8.17,4.15,11.87,6.76,1.39,1.1,1.1,3.29,1.12,4.94,0,.68,0,1.41.26,2.05.58,1.21,1.4,2.31,2.24,3.35,1.17,1.42,2.56,2.71,4.15,3.65-3.01.42-6.07.78-9.04.36-.76-.13-1.39-.32-1.97-.74l-.37-.29c-.15-.11-.34-.26-.64-.37-.01,0-.12-.05-.04-.02.04,0,.09.04.1.05,0,0,.02.01,0-.01l-.12-.12c-3.32-4.1-6.69-8.27-10.52-11.92-5.76-5.6-12.46-10.32-19.8-13.66-2.11-.99-5.21-2.14-7.4-3-9.77-3.86-19.47-8.13-28.43-13.65-4.18-2.61-9.3-6.15-12.65-10.38,3.34-.36,6.7-.56,10.07-.58v-.25c-3.54-.19-7.09-.15-10.64.07-.84-1.15-1.54-2.35-2.05-3.6-1.22-3.02-.93-6.64,1.52-8.96l-.16-.19c-2.07,1.81-2.89,4.73-2.42,7.4.33,1.87,1.15,3.68,2.28,5.41-1.5.11-3,.24-4.5.42-13.27,1.68-26.35,5.97-37.86,12.85-2.22,1.42-4.37,2.9-6.38,4.62-3.16.71-6.43.69-9.66.32,1.9-2.86,4.35-5.4,6.91-7.63.54-.43,1.86-1.47,2.39-1.89.53-.36,1.97-1.36,2.51-1.73.97-.63,2.48-1.51,3.47-2.12,1.21-.62,2.41-1.26,3.61-1.9l.41-.22.17-.38c2-4.84,2.62-10.22,1.99-15.4-.84-6.55-4.15-12.69-8.6-17.47,6.04,9.46,8.43,19.04,5.04,29.95-.16.49-.35,1.02-.54,1.51-.98.53-3.3,1.77-3.3,1.77-1.02.66-2.59,1.6-3.57,2.3l-1.71,1.27c-.99.7-2.32,1.95-3.25,2.75-2.47,2.42-4.79,5.23-6.43,8.35-.16-1.05-.3-2.11-.46-3.19-.36,1.22-.59,2.46-.72,3.73-.52-.08-1.04-.17-1.56-.26l-.08.24c.52.23,1.05.44,1.58.63-.05.62-.08,1.25-.09,1.88-.57,1.64-.93,3.35-1.02,5.11.26-1.13.62-2.22,1.06-3.28,0,.06,0,.12,0,.17.35,4.65,1.96,9.28,4.95,12.91.5.6,1.04,1.19,1.62,1.73-1.25-.15-2.49-.3-3.71-.52l-.06.24c1.64.57,3.38.97,5.09,1.4.89.68,1.85,1.25,2.9,1.65-.36-.38-.71-.76-1.05-1.16,1.38.4,2.73.88,3.97,1.55l.36.23c.17.14.45.36.57.53,3.13,4.08,2.01,9.79.44,14.31-.04.11-.08.23-.12.34-2.47-1.5-5-2.89-7.54-4.21-6.41-3.27-12.89-6.69-17.42-12.41-3.78-5.8-5.11-20.35-5.58-32.55.27.22.54.43.83.64l.18-.17c-.37-.62-.72-1.25-1.06-1.87-.18-5.29-.2-10.04-.2-13.3h-.25c-.19,3.96-.29,7.93-.3,11.91-1.64-3.13-3.06-6.28-4.62-9.48-.71-1.42-1.4-2.86-2-4.34-2.41-5.94-4.41-12.05-6.03-18.27l-.25.05c.21,1.6.48,3.2.79,4.79.6,3.18,1.33,6.34,2.19,9.47,1.44,4.67,2.68,9.45,5.14,13.74,1.31,2.23,2.87,4.4,4.79,6.16,0,2.05.04,4.1.09,6.14.05,1.18.09,2.49.16,3.9-2.09-.99-4.52-2.23-6.41-3.5-1.64-1.04-3.33-2.33-4.86-3.79.32-.52.63-1.05.9-1.59l-.21-.14c-.4.42-.8.83-1.2,1.23-2.28-2.27-4.15-4.89-4.94-7.5-.1-1.14-.2-2.84-.38-3.95-.54-3.92-1.45-7.87-3.08-11.48-.67-1.48-1.42-2.92-2.25-4.32,2.32,2.42,4.58,4.91,6.82,7.39l.21-.14c-1.26-1.99-3.33-4.68-4.72-6.6-1.62-2.16-3.3-4.33-5.13-6.33-1.81-2.02-3.56-4.14-5.7-5.83-1.4-1.13-2.85-2.19-4.38-3.12,2.42.29,4.81.75,7.13,1.41l.29.09.21-.1c3.99-2.02,5.45-7.47,5.92-11.58-.96,3.59-2.67,8.52-6.22,10.23-4.69-1.67-9.63-2.49-14.61-2.59-2.53-.03-5.08.14-7.6.55-3.61.61-7.28,1.52-10.9,1.99-.42.07-1.13.1-1.43.06-.12-.08-.34-.24-.49-.32-4.91-2.38-7.75-6.82-9.07-11.82.78-.58,1.48-1.27,2.07-2.04.75-.98,1.36-2.05,1.78-3.21-1.21,1.28-2.47,2.51-3.93,3.48-.09.06-.19.12-.28.18-.13-.66-.24-1.33-.32-2-.06-.83-.11-1.92-.15-2.78.58-.84,1.37-1.56,2.1-2.28,1.58-.38,3.25.27,4.64,1.04-.78-1.03-1.9-1.86-3.15-2.23,1.46-1.03,3.07-1.87,4.7-2.55,1.95-.87,4.26-1.46,6.35-1.97-1.03.08-2.06.21-3.08.39.55-.39,1.05-.86,1.52-1.34,3.2-3.53,5.03-8.11,6.2-12.67,1.62-1.44,3.57-2.48,5.55-3.36,3.52-1.52,7.38-2.45,11.18-3.08.6-.07,2.06-.27,2.69-.34.86-.09,1.86-.17,2.88-.23-4.15,1.44-8.32,2.82-12.43,4.29,5.84-1.07,11.63-2.44,17.33-4.1,2.3-.68,4.58-1.38,6.82-2.28.56-.23,1.11-.46,1.64-.71.01.7.01,1.4,0,2.08-.23,8.34-1.92,17.39-7.64,23.71-.65-3.88-1.9-7.67-3.99-11.01-.84-1.26-1.82-2.43-2.96-3.4,1.93,2.28,3.13,5,3.96,7.83.97,3.39,1.43,6.95,1.5,10.46l1.45-1.21c2.17-1.78,3.99-3.97,5.4-6.4,2.17-3.86,3.51-8.13,4.18-12.53,3.44,1.34,6.76,3.19,9.5,5.67,1.9,1.73,3.47,3.89,4.12,6.41-.31-2.1-1.2-4.04-2.46-5.8,3.52.68,6.94,1.86,10.11,3.47,3.36,1.69,6.47,3.9,9.06,6.62,1.28,1.35,2.38,2.86,3.32,4.45.84,1.47,2.04,3.56,3.01,4.92,2.24,3.2,4.66,6.24,7.5,8.93l.2-.15c-1.61-3.28-3.43-6.39-5.23-9.49,1.94.95,3.92,1.83,5.9,2.68,3.55,1.51,7.66,3.08,11.32,4.26,3.84,1.22,7.72,2.5,11.66,3.36,3.47.75,7.02,1.08,10.56,1.21,1.47-.01,3.12-.03,4.57-.16l.02-.25c-2.28-.61-4.55-1.11-6.81-1.6,13.37-3.71,27.85-3.54,41.11.47.41.12,1.26.38,1.66.53l1.65.55,1.63.62c2.17.82,4.37,1.83,6.47,2.84,5.07,1.56,11.33.11,16.19-1.56,14.33-5.2,27.24-16.08,37.62-27.01-11.81,9.5-24.13,19.19-38.58,24.17-4.28,1.46-9.97,2.53-13.94,1.57-16.66-8.28-37.06-9.52-54.29-2.3-1.48-.32-2.95-.64-4.42-1-4.35-1-8.8-1.67-13.14-2.82-6.6-1.74-13.21-3.78-19.58-6.26-.94-1.6-1.98-3.35-3.03-4.89-1.18-1.64-2.52-3.14-3.97-4.51-5.64-5.29-13.18-8.32-20.83-9.02-2.68-3.58-6.85-6.41-10.62-8.35.36-3.75.27-7.54-.18-11.21-.84.63-1.99,1.59-2.97,2.05-.38.19-1.15.57-1.54.73-3.01,1.27-6.09,2.42-9.19,3.52-.18,0-.36-.02-.54-.02-.39-2.83-1.98-5.37-3.66-7.63-.93,1.22-1.75,2.59-2.85,3.77-1.8,1.76-3.86,3.28-5.97,4.69-3.94.75-7.77,2.03-11.24,4.07-.66.41-1.26.8-1.87,1.35l-.13.38c-1.49,4.21-3.45,12.11-6.6,15.23-1.54.32-3.05.77-4.5,1.36-1.67.7-3.33,1.57-4.8,2.68-.89.65-1.75,1.33-2.47,2.18-.13.16-.32.46-.43.75-.02,1.16.02,2.3.12,3.46.01.18.03.37.05.55.11,1.27.29,2.54.58,3.81,1.22,5.39,4.72,10.46,9.77,12.93.01,0,.03.01.07.05l.2.15c.95.64,2.12.47,3.12.37,2.54-.32,4.94-.84,7.42-1.36,3.54-.81,7.15-1.44,10.79-1.48,1.77-.02,3.56.04,5.35.18.6.77,1.23,1.5,1.87,2.22,1.8,2,3.65,3.93,5.7,5.66.69.58,1.38,1.17,2.05,1.77.22.39.44.78.65,1.17-.22.36-.43.72-.63,1.08-1.07,1.95-2.01,3.94-2.65,6.07-.32,1.06-.62,2.12-.98,3.16-.57,1.64-1.13,3.29-1.71,4.93-3.18,3.46-6.7,7.39-9.4,10.36-4.16,4.59-8.41,9.6-12.75,14.04-2.21,2.17-4.54,4.45-6.91,6.45-2.31,2.01-5,3.98-7.53,5.72-4.12,2.97-8.29,6-11.78,9.74.27-1.17.55-2.16.7-2.68l-.24-.08c-.3.81-.81,2.18-1.26,3.71-.3.38-.59.77-.84,1.18-.2.38-.43.73-.46,1.17h.25c.03-.16.1-.35.19-.51.17-.32.38-.63.61-.92-.78,2.98-1.14,6.26.78,7.22,1.27.63,2.71.78,4.08.97,3.22.35,6.44.35,9.67.17,1.08-.06,2.16-.14,3.27-.31.7-.13,1.15-.15,1.9-.51.52-.3,1-.7,1.47-1.06,2.33-1.88,4.47-3.92,6.37-6.22.3-.38.58-.73.82-1.19.24-.48.29-1.05.31-1.57.03-1.48-.1-2.88.07-4.32,5.06-5.7,12.17-9.39,19.47-11.41,3.63-.98,7.38-1.46,11.11-1.87l.34-.04.26-.18c3.81-2.78,7.77-6.28,10.52-10.3.4.33.82.65,1.23.96,1.59,1.2,3.47,2.29,5.23,3.21,1.57.81,3.79,1.73,5.5,2.36.37,7.86,1.24,18.45,4.63,23.92,4.49,6.07,11.26,10,17.72,13.58,3.36,1.88,6.68,3.75,9.92,5.77l.58-1.33c1.99-4.95,3.18-11.03.71-16.03-.7-1.28-1.6-2.54-2.96-3.17-1.86-.82-3.83-1.23-5.82-1.52-2.5-3.28-4.32-7.05-5.51-11-.73-2.36-1.2-4.73-1.59-7.14.03-.05.06-.1.09-.15.05.02.1.03.16.05,3.48.99,7.15,1.44,10.75.85l.19-.03c1.11-.82,2.31-1.62,3.48-2.38,5.55-3.49,11.26-6.76,17.29-9.37,2.56-1.09,5.16-2.07,7.8-2.95-.21,2.61-.27,5.18-.16,7.81.16,3.15.48,6.3,1.68,9.28.59,1.48,1.57,2.8,2.51,4.07,2.12,2.86,5.26,5.84,7.46,8.64.35.48.81,1.14.86,1.68-.2,1.32-1.13,2.61-1.81,3.77-1.62,2.54-3.46,4.96-5.43,7.25-1.51,1.64-2.91,3.5-5.07,4.25-2.86,1.04-5.96,1.12-8.88,1.96-.43.16-1.03.34-1.19.85,0,.03-.01.07-.02.1-.3.36-.54.76-.76,1.18-1,1.84-.81,4.46,1.69,4.82.97.12,1.96.11,2.93.04,1.65-.16,3.97-.31,5.65-.4,1.54-.11,3.16-.24,4.77-.38,2.64.11,5.29.16,7.95.1.23-.02.46-.11.65-.24.65-.49.93-1.03,1.37-1.63,6.85-11.2,14.63-19.26,27.14-24-13.31,1.96-22.88,11.35-29,22.83-.18.33-.45.74-.64,1-3.19.3-6.38.53-9.58.84-1.85-.13-3.71-.25-5.48-.35-1.75-.1-3.5-.4-5.26-.31-.09,0-.42.02-.47.03-.03.01-.06.02-.12-.02-.19-.15-.29-.51-.35-.79-.16-.78-.15-1.74-.18-2.72l-.12-.04c.16-.42.67-.54,1.08-.68.72-.21,1.47-.32,2.22-.43,2.63-.41,5.39-.56,7.86-1.69,1.73-.92,3.04-2.44,4.37-3.81,1.04-1.12,2.04-2.29,3-3.48,1.44-1.8,2.84-3.65,3.99-5.66,1.16-2,1.21-2.91-.13-4.81-.88-1.35-3.37-4.04-4.39-5.33-1.66-2.01-3.29-4.04-4.52-6.33-2.26-4.99-1.74-12.72-1.06-18.19,5.63-1.71,11.41-2.91,17.26-3.6,3.29,4.59,8.66,8.54,12.74,11.26-1.92,3.23-2.92,7.04-2.77,10.78.15,3.9,1.74,7.62,4.14,10.62-1.01-1.61-1.81-3.34-2.32-5.13-1.47-5.12-.18-10.77,3.01-14.97,8.37,5.2,17.33,9.37,26.39,13.21,2.11.9,5.19,2.13,7.21,3.15,11.09,5.57,20.46,14.07,28.62,23.33.52.56,1.03,1.17,1.67,1.71.11.1.33.22.48.27.01,0,.1.04.22.12l.2.14c.84.6,1.96.92,2.92.98,3.42.2,6.73-.54,9.98-1.42.17.09.34.17.51.25.58.23,1.24.44,1.84.55-.52-.32-1.01-.67-1.46-1.04M59.32,50.7c.48-.35.98-.7,1.45-1.12.96,1.16,1.97,2.28,3.01,3.38-1.19-.04-2.37-.05-3.37-.02-1.88.05-3.77.19-5.65.44,1.59-.75,3.12-1.62,4.56-2.67M81.02,144.38c-3.15,2.78-6.55,5.32-9.98,7.71-4.19.45-8.33,1.54-12.3,2.91-6.42,2.23-12.88,6.09-17.37,11.42.18-.58.44-1.15.8-1.68l-.17-.18c-1.39.98-2.08,2.62-2.46,4.27-.83,1.24-1.56,2.54-2.17,3.91l.23.09c.36-.75.82-1.47,1.29-2.17.13-.19.26-.37.4-.56-.02.13-.04.26-.06.38-.09.49-.19,1.8-.4,2.23-.33.43-.78.85-1.22,1.28-1.44,1.35-5.2,4.89-6.69,6.19-.08.08-.24.14-.51.23-1.2.35-2.45.51-3.73.68-2.07.23-4.16.36-6.25.4-2.22,0-4.52.09-6.65-.55-1.66-.5-1.23-4.2-.59-7.21.11-.12.23-.24.34-.36,4.25-4.12,9.35-7.3,14.33-10.48,2.66-1.74,5.35-3.66,7.74-5.72,5.42-4.59,10.73-9.74,15.52-14.98,3.17-3.61,6.2-7.36,9.02-11.26-.41,1.04-.84,2.07-1.3,3.09l.22.13c1.85-2.74,3.37-5.67,4.79-8.65.53-.82,1.04-1.65,1.55-2.48l-.2-.15c-.07.08-.15.16-.23.24.11-.25.23-.49.34-.74.92-2.02,2.01-3.97,2.62-6.12.3-1.02.56-2.04.77-3.08.1.19.2.37.29.56,1.76,3.37,3.19,6.9,4.53,10.44,1.34,3.59,2.26,7.32,2.64,11.14,1.04,3.24,3.27,5.93,5.82,8.16-.33.31-.65.61-.98.91"/>
    <path class="cls-2" d="M49.55,75.11c-.64-3.53-5.18-6.79-8.6-4.92l.02.12c.41-.04.84,0,1.26.06.14.02.27.05.41.07-.2.55-1.11,3.33.3,5.84l-1.44.51s1.12.18,2.3,0c1.16-.17,3.44-1.6,4.89-2.51l.77.9.1-.08"/>
    <path class="cls-3" d="M43.44,70.58s-.81,1.28-.07,2.82c.74,1.54.7-2.72.7-2.72,0,0-.24-.12-.62-.1"/>
    <path class="cls-2" d="M243.31,190.43l-.75,2.53h-8.99l-.75-2.53h-13.32l-.75,2.53h-8.99l-.75-2.53h-13.32l-.75,2.53h-8.99l-.75-2.53h-13.32l-.75,2.53h-8.99l-.75-2.53h-13.32l-.75,2.53h-8.99l-.75-2.53h-13.32l-.75,2.53h-8.99l-.75-2.53h-13.32l-.75,2.53h-8.99l-.75-2.53h-13.32l-.75,2.53h-8.99l-.75-2.53h-13.32l-.75,2.53h-8.99l-.75-2.53h-13.32l-.75,2.53h-8.99l-.75-2.53h-4.13c.88,1.71,1.8,3.4,2.75,5.07h225.73c.95-1.67,1.87-3.36,2.75-5.07h-2.24Z"/>
    <path class="cls-2" d="M130.95,103.1c2.08-.33,4.18,1.02,5.11,2.83,1.46,2.88,1.86,6.15,1.46,9.31h-.25c-.14-.59-.26-1.18-.38-1.76-.26-.99-.57-1.99-.94-2.94-.33-.75-.71-1.59-1.16-2.27-.55-.76-1.25-1.42-1.78-2.19-.63-.86-1.27-1.71-2.13-2.73l.06-.24Z"/>
  </g>
</svg>