<?xml version="1.0" encoding="UTF-8"?>
<svg id="Calque_2" data-name="Calque 2" xmlns="http://www.w3.org/2000/svg" viewBox="0 0 552.42 60.93">
  <defs>
    <style>
      .cls-1 {
        fill: #1d1d1b;
      }

      .cls-2 {
        fill: #ffed00;
      }
    </style>
  </defs>
  <g id="Calque_2-2" data-name="Calque 2">
    <path class="cls-1" d="M67.46,60.72c-.07,0-.14,0-.22-.02l-19.56-3.26c-.59-.1-1.04-.59-1.09-1.19l-.07-.8-1.03-.18c-.59-.11-1.04-.6-1.07-1.2l-.64-9.67c-.71,1.72-1.44,3.45-2.15,5.15-1.04,2.48-2.04,4.89-2.95,7.1-.2.49-.68.81-1.21.81-.03,0-.06,0-.09,0-2.68-.19-3.83-.45-4.95-.69l-.59-.13-2.12-.35c-.39-.07-.73-.3-.92-.64-.23-.41-.46-.89-.69-1.44l-.57-.1c-.43-.07-.8-.35-.98-.75-1.23-2.74-2.01-4.7-3.9-9.58-.02,2.32-.04,4.65-.06,6.95-.02,2.47-.03,4.85-.06,7.04,0,.72-.59,1.29-1.31,1.29-.56,0-1.9,0-2.39-.09-2.11-.36-10.73-1.65-14.42-1.65-.46,0-.88-.24-1.12-.64-.37-.62-.55-1.07-.62-1.4l-.06-.13c-.12,0-.25,0-.37,0-.46,0-.89-.24-1.12-.64-.37-.62-.55-1.06-.62-1.4l-.38-.82c-.11-.24-.15-.5-.11-.76L7.91,2.32c.1-.64.66-1.1,1.29-1.1.06,0,.11,0,.17.01,7.19.94,12.47,1.43,17.12,1.58.49.02.93.31,1.14.76l.66,1.42h.33c.51,0,.97.29,1.19.76,1.07,2.3,3.76,8.11,5.53,12.37l.35.87c1.36-2.19,2.66-4.51,4.01-6.92l.38-.68c.22-.39.49-.88.78-1.4.56-1.02,1.19-2.17,1.63-2.9.2-.33.54-.56.92-.62,4.61-.72,15.01-1.95,15.12-1.96.05,0,.1,0,.15,0,.65,0,1.22.49,1.3,1.15l.13,1.12c.32-.04.52-.07.53-.07.07-.01.14-.02.21-.02.28,0,.55.09.78.26.29.21.47.53.52.88l6.59,51.45c.05.41-.09.82-.39,1.11-.25.24-.57.37-.91.37"/>
    <path class="cls-1" d="M47.9,56.15l-.15-1.81-2.03-.36-1.01-15.29c-2.32,5.73-5.07,12.17-7.25,17.46-3.04-.22-3.99-.51-5.36-.8l-2.17-.36c-.29-.51-.58-1.16-.87-1.96l-1.31-.22c-1.3-2.9-2.1-4.93-4.2-10.36l-2.1-5.36c-.14,6.81-.14,14.49-.22,20.65,0,0-1.74,0-2.17-.07-2.1-.36-10.8-1.67-14.64-1.67-.22-.36-.58-1.16-.43-1.01l-.51-1.09c-.44-.07-.87-.07-1.23-.07-.22-.36-.58-1.16-.43-1.01l-.51-1.09L9.21,2.53c7.75,1.01,12.9,1.45,17.25,1.59l1.01,2.17h1.16c1.52,3.26,3.91,8.48,5.51,12.32l1.3,3.19c2.03-3.04,3.84-6.3,5.8-9.78.65-1.16,1.74-3.19,2.39-4.28,4.64-.72,15.07-1.96,15.07-1.96l.29,2.39c1.01-.07,1.88-.22,1.88-.22l6.59,51.45-19.56-3.26Z"/>
    <path class="cls-2" d="M63.05,54.92l-6.23-48.11s-8.26,1.01-12.9,1.74c-3.41,5.94-6.67,12.03-9.93,16.52-.8-1.23-5.8-13.11-9.06-20.07-3.91-.14-8.41-.51-15.07-1.38L2.26,50.93l.36.87c3.7,0,14.35,1.74,14.42,1.74.07-9.35.36-23.26.58-29.64,2.83,6.67,8.04,21.52,10.51,26.96,1.88.36,3.91.87,5.65,1.01,2.68-6.52,9.78-23.4,11.01-26.38l1.74,26.67,16.52,2.75Z"/>
    <path class="cls-1" d="M90.08,60.93c-6.12,0-11.14-2.22-14.91-6.61-6.27-5.43-9.58-15.69-9.58-29.69,0-.1.2-10.5,3.38-22.44.09-.34.32-.63.62-.8.2-.11.42-.17.64-.17.12,0,.25.02.37.05,3.23.95,8.57,2.32,11.88,3.1l6.53,1.6c.35.08.64.31.82.61.18.31.22.67.13,1.02-.02.08-.04.16-.06.24l1.28.3c.69.16,1.13.85.98,1.54-.1.5-.2,1.02-.29,1.53-.17.94-.33,1.82-.54,2.49-.47,1.84-1.03,3.99-1.03,12.08v.29c0,.6.03,3.36.56,5.56,2.26-.85,2.85-4.99,3.39-10.6l.04-.38c.19-1.95.28-3.9.28-5.82,0-.59-.02-1.15-.04-1.72-.02-.61-.04-1.23-.04-1.9-.07-1.78-.14-5.3-.14-7.32,0-.71.57-1.29,1.28-1.31,0,0,12.19-.29,12.2-.29.35,0,.68.14.93.38l1.45,1.45c.13.13.22.27.29.43.16.07.31.16.44.29l1.45,1.45c.24.24.38.58.38.92v.87c0,2.84-.04,17.39-.88,25.28-2.17,17.77-9.91,27.55-21.81,27.55"/>
    <path class="cls-1" d="M111.45,7.24v.87c0,3.62-.07,17.61-.87,25.14-1.52,12.46-6.52,26.38-20.51,26.38-6.09,0-10.65-2.32-13.99-6.23-6.52-5.58-9.2-16.3-9.2-28.77,0-1.01.36-10.94,3.33-22.1,3.19.94,8.55,2.32,11.96,3.12l6.52,1.59c-.15.51-.22,1.09-.29,1.59l2.46.58c-.29,1.38-.51,2.97-.8,3.91-.58,2.24-1.09,4.56-1.09,12.46v.29c0,1.01.07,4.64.94,7.03,4.57,0,5.07-6.3,5.65-12.32.22-2.25.29-4.27.29-5.94,0-1.23-.07-2.32-.07-3.62-.07-1.74-.14-5.22-.14-7.32l12.17-.29,1.45,1.45v.73h.73l1.45,1.45Z"/>
    <path class="cls-2" d="M96.53,4.78c0,4.28.22,6.88.22,9.86,0,1.67-.07,3.48-.29,5.72-.65,6.74-1.16,13.62-7.1,13.62-4.57,0-4.57-10.58-4.57-10.94,0-10.65,1.01-11.45,1.67-15.36-3.62-.94-10.72-2.46-15.8-3.91-2.61,9.71-2.9,19.27-2.9,20.29,0,17.39,5.36,31.38,19.57,31.38,13.26,0,17.75-12.97,19.06-25.07.8-7.54.87-21.45.87-25v-.87l-10.72.29Z"/>
    <path class="cls-1" d="M115.66,59.99c-.34,0-.66-.13-.91-.37-.26-.25-.4-.59-.4-.94,0,0,0-.35-.02-.89,0,0-.84.03-.85.03-.33,0-.66-.13-.9-.36-.25-.24-.4-.57-.41-.92-.04-1.83-.87-44.88-.87-46.18,0-.7.56-1.28,1.26-1.31,4.88-.18,10.8-.61,15.12-.92l2.3-.16s3.77-.15,3.79-.15c.36,0,.7.15.95.41.26.27.39.65.35,1.02l-.07.8s.92-.05.95-.05c.35,0,.7.14.94.4.27.28.4.65.36,1.04l-2.68,27.31c3.03-.18,7.17-.35,10.33-.41h.03c.34,0,.67.13.92.38.25.25.39.58.39.93v.87c.29,0,.58,0,.87,0,.72,0,1.31.59,1.31,1.31v15.72c0,.7-.56,1.28-1.26,1.31,0,0-31.48,1.16-31.5,1.16"/>
    <path class="cls-1" d="M115.66,58.68s0-.94-.07-2.25l-2.1.07s-.87-44.85-.87-46.16c5.87-.22,13.33-.8,17.46-1.09l3.7-.14-.22,2.32,2.39-.14-2.83,28.84c3.04-.22,8.19-.43,11.81-.51v2.25c.73-.07,1.45-.07,2.17-.07v15.72l-31.45,1.16Z"/>
    <path class="cls-2" d="M142.91,53.4v-12.9c-5.73.07-11.09.58-14.35.73l3.04-31.23c-3.98.29-11.23.87-18.11,1.16,0,1.3.87,43.26.87,43.26l28.55-1.01Z"/>
    <path class="cls-1" d="M162.03,60.64c-.3,0-.59-.1-.83-.3-.3-.25-.48-.62-.48-1.01,0-.21.01-.52.03-.88,0-.05,0-.11,0-.17-.37.08-.57.14-.58.14-.1.03-.21.04-.32.04-.29,0-.58-.1-.81-.28-.32-.25-.5-.64-.5-1.04l.34-26.77c-2.31.14-4.86.24-7.34.35,0,0-1.82.08-1.84.08-.34,0-.66-.13-.9-.36-.26-.25-.4-.59-.4-.95v-.89c-.29.01-.58.02-.87.02-.35,0-.68-.14-.93-.39-.25-.25-.38-.58-.38-.93,0-.83.08-20.47.51-24.69.07-.67.64-1.17,1.3-1.17.02,0,.05,0,.08,0l41.66,2.39c.69.04,1.23.61,1.23,1.31v.84l.91.03c.69.02,1.25.58,1.27,1.27l.36,14.06c0,.31-.09.61-.29.85l-1.16,1.45c-.19.24-.46.41-.76.47-1.88.38-8.93,1.46-12.44,1.99,1.03,9.12,3.46,29.11,3.48,29.32.08.69-.38,1.32-1.07,1.45-2.35.43-18.87,3.73-19.04,3.76-.08.02-.17.03-.26.03"/>
    <path class="cls-1" d="M191.09,22.81c-1.81.36-8.84,1.45-13.62,2.17.94,8.48,3.62,30.58,3.62,30.58-2.39.43-19.06,3.77-19.06,3.77,0-.51.07-1.52.07-2.68-1.38.29-2.25.51-2.25.51l.36-28.19c-3.19.22-7.1.36-10.51.51v-2.25c-.73,0-1.45.07-2.17.07,0,0,.07-20.36.51-24.56l41.66,2.39v2.1l2.17.07.36,14.06-1.16,1.45Z"/>
    <path class="cls-2" d="M187.69,5.94l-38.91-2.25c-.29,2.82-.36,21.52-.36,21.52,4.93-.22,9.64-.51,12.68-.72,0,0-.22,26.52-.29,30.29,0,0,13.55-2.75,15.94-3.19,0,0-2.75-22.68-3.62-30.58,4.78-.72,13.12-2.03,14.93-2.39l-.36-12.68Z"/>
    <path class="cls-1" d="M235,60.5c-2.6-.14-32.09-2.84-39.25-3.93-.7-.11-1.19-.75-1.1-1.45l.07-.54c-.43-.06-.84-.12-1.22-.2-.66-.14-1.1-.77-1.02-1.44.5-4.08,1.23-13.19,1.37-15.43.04-.69.62-1.23,1.3-1.23.02,0,.04,0,.06,0,1.35.07,4.98.18,7.61.21v-11.66l-3.93.37s-.08,0-.12,0c-.62,0-1.17-.45-1.29-1.07-.07-.38-.14-.77-.2-1.15l-.58.05s-.07,0-.11,0c-.64,0-1.19-.46-1.29-1.1-.52-3.23-.67-5.56-.81-7.81-.07-1.23-.31-3.69-.46-5.16l-.05-.44c-.03-.35.07-.69.29-.96.22-.27.54-.44.88-.47,14.1-1.38,41.02-4.01,41.92-4.13.05,0,.11-.01.16-.01.32,0,.63.12.87.33.28.25.44.61.44.98v.96c.57-.08.73-.1.87-.1.72,0,1.31.59,1.31,1.31v14.56c0,.32-.12.64-.34.88l-1.3,1.45c-.21.23-.5.38-.81.42-1.82.23-5.08.35-9.7.37-.24,2.34-.5,4.53-.75,6.66-.22,1.85-.45,3.76-.66,5.74l5.81.06c.67,0,1.23.52,1.29,1.19,0,0,.07.74.09.98h.78c.68,0,1.24.52,1.3,1.19.22,2.45.22,3.96.22,6.06,0,3.13-.15,8.89-.29,13.23-.01.35-.16.68-.42.92-.24.22-.56.34-.88.34-.02,0-.05,0-.07,0"/>
    <path class="cls-1" d="M238.12,22.45c-1.74.22-5.14.36-10.72.36-.51,5.36-1.16,9.78-1.67,15l7.25.07c.07.8.14,1.52.14,2.17h2.03c.22,2.39.22,3.84.22,5.94,0,3.04-.14,8.7-.29,13.19-2.68-.14-31.95-2.83-39.13-3.91l.22-1.81c-.94-.14-1.74-.22-2.39-.36.51-4.13,1.23-13.19,1.38-15.51,1.52.07,6.3.22,8.98.22v-14.42l-5.36.51c-.15-.8-.29-1.59-.36-2.32l-1.81.14c-.51-3.12-.65-5.36-.8-7.68-.07-1.38-.36-4.2-.51-5.65,0,0,40.79-3.99,41.95-4.13v2.46c1.09-.14,2.03-.29,2.17-.29v14.56l-1.3,1.45Z"/>
    <path class="cls-2" d="M235.22,5.36c-1.16.15-38.91,3.77-38.91,3.77.36,3.7.51,7.39.94,10.43,3.41-.22,5.29-.58,7.75-.73,0,3.04.07,7.68.07,11.88,0,3.19-.07,6.09-.15,7.97-2.68,0-7.46-.07-8.98-.14-.14,2.32-.65,8.62-1.16,12.75,6.67,1.01,33.7,3.48,36.16,3.62.15-4.49.22-8.62.22-11.67,0-2.17,0-3.7-.07-4.49l-9.86-.22,2.03-19.93c6.81,0,10-.14,11.96-.36V5.36Z"/>
    <path class="cls-1" d="M267.54,60.43c-.68,0-1.24-.51-1.3-1.19l-.1-1.03c-.34.03-.6.04-.77.04-.68,0-1.24-.51-1.3-1.18l-4.71-49.56c-.05-.54.23-1.05.72-1.3,3.52-1.76,9.54-2.71,17.89-2.82h.42c4.47,0,19.64.71,27.49,9.87,4.39,3.75,6.61,8.62,6.61,14.48,0,11.49-6.16,18.14-18.31,19.77-.8.08-1.56.16-2.35.16-1.15,0-2.24-.11-3.28-.26.14.64.28,1.29.42,1.93l1.81,7.67c.09.37.01.76-.21,1.07-.22.31-.57.5-.94.54-.82.07-20.08,1.82-22.07,1.82"/>
    <path class="cls-1" d="M293.99,46.22c-.73.07-1.45.15-2.17.15-1.81,0-3.48-.29-4.93-.58.22,1.23.51,2.54.8,3.84l1.81,7.68s-20,1.81-21.96,1.81l-.22-2.32c-.94.07-1.67.15-1.96.15l-4.71-49.56c1.88-.94,6.23-2.54,17.32-2.68,9.35-.07,20.94,2.39,26.95,9.49,3.77,3.19,6.23,7.61,6.23,13.55,0,12.46-7.46,17.17-17.17,18.48"/>
    <path class="cls-2" d="M277.4,5.57c-10.72.15-14.35,1.38-15.8,2.1l4.49,47.24c.43,0,18.84-1.67,18.84-1.67-.73-3.55-1.96-8.7-2.68-12.25,1.45.43,4.06,1.16,6.88,1.16.65,0,1.31-.07,1.96-.15,8.99-1.16,15.87-5.51,15.87-17.03,0-14.85-16.88-19.56-29.56-19.42"/>
    <path class="cls-1" d="M285.29,28.91c-.23,0-.46-.06-.66-.18-.4-.23-.65-.67-.65-1.13v-1.74c0-1.34,0-3.02-.07-4.88-.03-.66.44-1.23,1.09-1.34.54-.09.84-.09.94-.09,2.24,0,2.98.21,3.79.52.4.15.71.49.81.91l.03.13c.07.26.15.58.15.99,0,2.61-1.61,4.84-4.79,6.65-.2.11-.42.17-.64.17"/>
    <path class="cls-1" d="M289.28,21.29c-.58-.22-1.16-.43-3.33-.43-.07,0-.29,0-.72.07.07,1.88.07,3.55.07,4.93v1.74c2.17-1.23,4.13-2.97,4.13-5.51,0-.29-.07-.51-.14-.8"/>
    <path class="cls-1" d="M379.7,60.64c-.3,0-.59-.1-.83-.3-.3-.25-.48-.62-.48-1.01,0-.21.01-.52.03-.88,0-.05,0-.11,0-.17-.37.08-.58.14-.58.14-.1.03-.21.04-.32.04-.29,0-.58-.1-.81-.28-.32-.25-.5-.64-.5-1.04l.34-26.77c-2.31.14-4.86.24-7.34.35,0,0-1.82.08-1.84.08-.34,0-.66-.13-.9-.36-.26-.25-.4-.59-.4-.95v-.89c-.29.01-.58.02-.87.02-.35,0-.68-.14-.93-.39-.25-.25-.38-.58-.38-.93,0-.83.08-20.47.51-24.69.07-.67.64-1.17,1.3-1.17.02,0,.05,0,.08,0l41.66,2.39c.69.04,1.23.61,1.23,1.31v.84l.91.03c.69.02,1.25.58,1.26,1.27l.36,14.06c0,.31-.09.61-.29.85l-1.16,1.45c-.19.24-.46.41-.76.47-1.88.38-8.93,1.46-12.44,1.99,1.03,9.12,3.46,29.11,3.48,29.32.08.69-.38,1.32-1.07,1.45-2.35.43-18.87,3.73-19.03,3.76-.08.02-.17.03-.26.03"/>
    <path class="cls-1" d="M408.75,22.81c-1.81.36-8.84,1.45-13.62,2.17.94,8.48,3.62,30.58,3.62,30.58-2.39.43-19.06,3.77-19.06,3.77,0-.51.07-1.52.07-2.68-1.38.29-2.25.51-2.25.51l.36-28.19c-3.19.22-7.1.36-10.51.51v-2.25c-.73,0-1.45.07-2.17.07,0,0,.07-20.36.51-24.56l41.66,2.39v2.1l2.17.07.36,14.06-1.16,1.45Z"/>
    <path class="cls-2" d="M405.35,5.94l-38.91-2.25c-.29,2.82-.36,21.52-.36,21.52,4.93-.22,9.64-.51,12.68-.72,0,0-.22,26.52-.29,30.29,0,0,13.55-2.75,15.94-3.19,0,0-2.75-22.68-3.62-30.58,4.78-.72,13.12-2.03,14.93-2.39l-.36-12.68Z"/>
    <path class="cls-1" d="M426.36,60.64c-.3,0-.59-.1-.83-.3-.3-.25-.48-.62-.48-1.01,0-.21.01-.52.03-.88,0-.05,0-.11,0-.17-.37.08-.58.14-.58.14-.11.03-.21.04-.32.04-.29,0-.58-.1-.81-.28-.32-.25-.5-.64-.5-1.04l.34-26.77c-2.32.14-4.86.24-7.35.35,0,0-1.82.08-1.84.08-.34,0-.66-.13-.9-.36-.26-.25-.4-.59-.4-.95v-.89c-.29.01-.58.02-.86.02-.35,0-.68-.14-.93-.39s-.38-.58-.38-.93c0-.83.08-20.47.51-24.69.07-.67.64-1.17,1.3-1.17.03,0,.05,0,.08,0l41.66,2.39c.69.04,1.23.61,1.23,1.31v.84l.91.03c.69.02,1.25.58,1.27,1.27l.36,14.06c0,.31-.09.61-.29.85l-1.16,1.45c-.19.24-.46.41-.76.47-1.88.38-8.93,1.46-12.44,1.99,1.03,9.12,3.45,29.11,3.48,29.32.08.69-.38,1.32-1.07,1.45-2.35.43-18.87,3.73-19.03,3.76-.09.02-.17.03-.26.03"/>
    <path class="cls-1" d="M455.42,22.81c-1.81.36-8.84,1.45-13.62,2.17.94,8.48,3.62,30.58,3.62,30.58-2.39.43-19.06,3.77-19.06,3.77,0-.51.07-1.52.07-2.68-1.38.29-2.25.51-2.25.51l.36-28.19c-3.19.22-7.1.36-10.51.51v-2.25c-.72,0-1.45.07-2.17.07,0,0,.07-20.36.51-24.56l41.66,2.39v2.1l2.17.07.36,14.06-1.16,1.45Z"/>
    <path class="cls-2" d="M452.02,5.94l-38.91-2.25c-.29,2.82-.36,21.52-.36,21.52,4.93-.22,9.64-.51,12.68-.72,0,0-.22,26.52-.29,30.29,0,0,13.55-2.75,15.94-3.19,0,0-2.75-22.68-3.62-30.58,4.78-.72,13.12-2.03,14.93-2.39l-.36-12.68Z"/>
    <path class="cls-1" d="M493.99,60.2c-3.77-.36-21.09-2.13-30.8-3.63-.6-.09-1.06-.58-1.1-1.19l-.06-.81-1.03-.18c-.59-.11-1.04-.6-1.08-1.2l-3.26-47.46c-.05-.69.45-1.3,1.13-1.39,2.22-.3,16.2-1.96,29.96-3.48.05,0,.1,0,.15,0,.57,0,1.08.37,1.25.93.13.42.23.87.32,1.31l.43-.06c.06,0,.11-.01.17-.01.57,0,1.08.37,1.25.93.8,2.64,1.24,6.98,1.43,9.33l.29,3.55c.03.41-.13.81-.43,1.08-.24.22-.55.33-.87.33-.06,0-.12,0-.19-.01-.03,0-.07,0-.12,0-1.68,0-9.68.64-13.68.97.13.54.27,1.2.42,1.95l3.78-.65,2.77-.44c.07-.01.14-.02.2-.02.28,0,.55.09.77.25.28.21.47.52.52.86l.17,1.15.5-.08c.07-.01.14-.02.21-.02.62,0,1.17.45,1.29,1.08.23,1.32.74,4.57.95,6.22l.46,3.68c.97-.14,1.72-.27,2.15-.37.1-.02.2-.03.3-.03.28,0,.56.09.78.26.31.23.5.59.52.97l.06,1.09c.17-.03.33-.06.45-.1.12-.03.24-.05.36-.05.27,0,.53.08.76.24.32.23.53.59.55.99l1.3,21.09c.02.38-.12.76-.4,1.03l-1.59,1.52c-.24.23-.57.36-.9.36-.04,0-.08,0-.12,0"/>
    <path class="cls-1" d="M494.12,58.9c-3.04-.29-20.87-2.1-30.72-3.62l-.15-1.81-2.03-.36-3.26-47.46c2.17-.29,16.16-1.96,29.93-3.48.22.73.36,1.52.51,2.39l1.67-.22c.72,2.39,1.16,6.38,1.38,9.06l.29,3.55c-.72-.14-12.1.8-15.65,1.09,0,0,.58,1.88,1.02,4.64l5.07-.87,2.75-.43.36,2.46,1.81-.29c.22,1.23.72,4.49.94,6.16l.58,4.64c-.43.15-.94.29-1.45.51,2.17-.22,4.13-.51,5.07-.73l.15,2.54c.8-.14,1.52-.22,2.03-.36l1.3,21.09-1.59,1.52Z"/>
    <path class="cls-2" d="M490.28,35.35c-2.03.43-11.01,1.23-12.75,1.16,0-.51-.22-1.81-.51-2.97,2.25-.87,4.93-2.1,7.25-2.97-.29-1.89-.72-5.87-1.09-8.12-5.43.87-7.46,1.23-9.78,1.23-.43-3.98-.87-9.06-.87-9.06,3.48-.29,14.78-1.23,14.93-1.3-.22-1.81-.65-8.33-1.16-10.14-13.77,1.52-25.22,2.9-27.39,3.19l3.12,44.85c9.85,1.52,26.45,3.19,29.49,3.48l-1.23-19.35Z"/>
    <path class="cls-1" d="M521.07,59.7c-9.66,0-17.31-4.83-24.13-10.05-.29-.22-.47-.55-.51-.89-.56-.41-1.13-.84-1.7-1.31-.49-.4-.62-1.08-.32-1.64l9.71-17.97c.18-.34.51-.58.89-.66.09-.02.18-.03.27-.03.29,0,.58.1.81.28,1.98,1.57,8.92,6.67,14.99,6.67,3.53,0,4.13-.33,4.13-1.08,0-.02,0-.04,0-.05-1.82-.95-4.59-1.67-7.28-2.38-5.09-1.34-10.84-2.86-13.52-6.57-2.45-1.82-3.7-4.21-3.7-7.09,0-12.66,16.5-14.2,27.42-15.21l2.01-.21c1.82-.15,4.41-.15,6.3-.15h2.1c.72,0,1.31.58,1.31,1.31v.87h.87c.72,0,1.31.59,1.31,1.31,0,.77.02,1.89.04,2.93.02.92.03,1.78.03,2.29s.02.96.04,1.42c.02.47.04.93.04,1.41,0,.97-.14,3.68-.2,4.73,1.78,1.09,3.27,2.35,4.52,3.83,4.37,3.6,6.25,8.67,5.89,15.93-.7,12.79-10.88,20.69-28.65,22.25-.77.08-1.9.08-2.65.08"/>
    <path class="cls-1" d="M523.61,58.32c-.73.07-1.81.07-2.54.07-9.06,0-16.23-4.35-23.33-9.78l.22-.36c-.8-.58-1.59-1.16-2.39-1.81l9.71-17.97c1.38,1.09,8.99,6.96,15.8,6.96,2.9,0,5.43-.07,5.43-2.39,0-.36-.07-.65-.22-.94-1.96-1.16-5-1.96-8.04-2.75-5.22-1.38-10.58-2.83-12.9-6.23-2.03-1.45-3.33-3.4-3.33-6.16,0-11.23,14.56-12.82,26.23-13.91l2.03-.22c1.74-.14,4.35-.14,6.16-.14h2.1v2.17h2.17c0,1.45.07,4.13.07,5.22,0,1.01.07,1.88.07,2.83s-.15,3.77-.22,5.07l-1.01-.15c2.61,1.3,4.49,2.83,5.94,4.57,4.64,3.77,5.8,8.98,5.51,14.93-.8,14.56-14.27,19.85-27.46,21.01"/>
    <path class="cls-2" d="M537.89,18.25c-8.99-4.06-16.3-1.16-16.3-4.64,0-1.52,2.61-2.39,4.71-2.32,1.59.07,4.49.43,10.22,2.17.07-1.38.14-2.46.14-3.48,0-2.03-.14-3.7-.14-6.45h-1.59c-1.45,0-3.48,0-5.07.14-11.52,1.09-26.96,1.81-26.96,12.68s24.49,7.25,24.49,16.09c0,3.7-3.19,3.84-6.88,3.84-7.75,0-14.86-5.94-15.43-6.38l-8.19,15.58c6.88,5.29,13.98,9.42,23.84,8.62,12.68-1.01,25.43-5.87,26.16-19.64.36-6.88-1.3-12.75-8.98-16.23"/>
    <path class="cls-1" d="M357.47,35.87c-.19,0-.38,0-.57-.03-2-.21-3.79-1.56-4.97-3.72-2.7-1.39-4.42-4.91-4.44-8.98-.66.29-1.36.45-2.08.46h-.07c-2.25,0-4.31-1.4-5.72-3.85-2.72-1.51-4.59-5.21-4.7-9.39-.09-3.34.97-6.49,2.82-8.42,1.19-1.24,2.62-1.9,4.15-1.93h.07c2.25,0,4.31,1.4,5.72,3.85,2.69,1.49,4.55,5.14,4.69,9.27.84-.45,1.74-.68,2.65-.68.19,0,.38.01.56.03,2,.21,3.79,1.56,4.97,3.72,2.98,1.54,4.77,5.66,4.39,10.26-.44,5.37-3.66,9.42-7.49,9.42"/>
    <path class="cls-1" d="M359.61,17.19c-.93-1.92-2.4-3.23-4.15-3.42-1.76-.19-3.43.8-4.66,2.51.2-.94.3-1.95.27-3-.1-3.99-1.92-7.33-4.34-8.45-1.14-2.16-2.89-3.55-4.83-3.52-3.27.04-5.81,4.08-5.68,9,.1,3.98,1.92,7.33,4.34,8.45,1.14,2.16,2.89,3.55,4.83,3.52,1.43-.02,2.73-.81,3.72-2.11-.13.57-.22,1.16-.27,1.78-.35,4.29,1.4,8.07,4.04,9.16.93,1.92,2.4,3.23,4.15,3.42,3.25.35,6.22-3.32,6.61-8.19.35-4.29-1.4-8.08-4.04-9.16"/>
    <path class="cls-1" d="M332.16,59.71c-.05,0-.11,0-.16,0l-1.18-.14c-.09-.01-.18-.03-.27-.06l-1.61-.56c-.07-.02-.13-.05-.19-.08l-1.42-.76c-.08-.04-.15-.09-.22-.14l-1.11-.91s-.08-.07-.12-.11l-.89-.94c-.06-.06-.11-.13-.15-.2l-.52-.82h-.02c-.08-.05-.15-.1-.22-.15l-1.11-.91s-.08-.07-.12-.11l-.89-.94c-.06-.06-.11-.13-.15-.2l-.89-1.41c-.04-.05-.07-.11-.09-.17l-.69-1.55c-.03-.06-.05-.12-.07-.19l-.31-1.13c-.02-.07-.03-.15-.04-.22l-.16-1.73s0-.09,0-.14l.02-1.58s0-.07,0-.1l.16-1.77c0-.1.03-.19.06-.29l.48-1.46c.02-.06.05-.12.08-.18l.36-.71c-1.88-.55-3.68-1.99-5.05-4.08-1.97-1.31-3.61-3.55-4.53-6.22-1.85-5.37-.34-10.68,3.44-12.09.6-.22,1.23-.34,1.88-.34,2.46,0,4.97,1.62,6.75,4.34,1.9,1.26,3.49,3.39,4.43,5.92l.36-.94s.02-.05.03-.07l.56-1.24c.04-.08.08-.16.14-.23l.15-.2c-1.53-.64-2.95-1.91-4.06-3.67-2.26-1.42-4.04-4.16-4.78-7.42-1.28-5.59.8-10.71,4.73-11.65.4-.1.82-.15,1.24-.15,2.34,0,4.68,1.54,6.32,4.15,2.26,1.42,4.04,4.16,4.78,7.42.54,2.36.48,4.74-.14,6.74h.9c.09.01.19.02.28.04l1.31.3s.07.02.11.03l1.03.34c.09.03.18.07.26.12l.89.53s.08.05.11.08l.67.5.73.6s.09.08.13.12l1.02,1.1s.06.07.08.1l.73.96.34.25.73.6s.09.08.13.12l1.02,1.1s.06.07.08.1l.93,1.23s.03.04.05.07l.75,1.13.65,1.07.95,1.4.05.06.84.65,1.38,1.04,1.21.89c.06.04.11.09.17.15l.95.99c.05.05.09.11.13.16l.74,1.06,1.04.77c.06.04.12.09.17.15l.95.99s.09.11.13.16l.74,1.08s.06.09.08.13l.29.55.45.9s.02.05.04.08l.24.55c.03.06.05.12.06.18,0,0,.33,1.29.34,1.32l.15.74s.01.06.02.09l.17,1.32c0,.06,0,.11,0,.17v1.29c0,.07,0,.14-.02.2l-.25,1.55c-.01.06-.02.12-.04.18l-.51,1.64c-.02.08-.06.15-.1.23l-.67,1.25c-.03.05-.06.11-.1.16l-.99,1.35c-.04.06-.1.12-.15.17l-.98.94c-.06.05-.12.1-.18.15l-1.43.94c-.06.04-.13.08-.2.11l-1.15.5c-.08.04-.17.06-.26.08l-.75.15c-.06.01-.12.02-.18.02l-.93.06s-.06,0-.08,0c-.04,0-.07,0-.11,0l-1.11-.09c-.09,0-.19-.03-.28-.05l-1.2-.37s-.1-.03-.15-.05l-1.23-.55s-.05-.02-.07-.03l-1.29-.67-1.55-.59-1.15-.41-.58-.06-.86-.03-.58.11-.55.23-.56.37-.77.48-.68.57-.86.7-.86.66-.33.33c-.06.06-.13.12-.21.17l-.97.65c-.08.06-.17.1-.27.14l-1.63.62c-.11.04-.22.07-.34.08l-1.75.16s-.08,0-.12,0"/>
    <path class="cls-1" d="M359.71,45.05l-.15-.74-.32-1.24-.24-.55-.44-.88-.29-.55-.74-1.07-.95-.99-1.22-.9-.04-.03-.07-.14-.74-1.07-.95-.99-1.22-.9-1.4-1.05-.95-.74-.18-.22-1.02-1.51-.63-1.03-.75-1.13-.93-1.23-1.02-1.1-.68-.56-.49-.36-.84-1.11-1.02-1.1-.68-.56-.67-.5-.9-.53-1.04-.34-1.31-.3h-1.27s-1.3.15-1.3.15l-.48.13c1.28-1.93,1.74-4.92,1.03-8.04-.72-3.14-2.45-5.62-4.45-6.75-1.6-2.7-4.02-4.24-6.31-3.69-3.18.77-4.86,5.28-3.76,10.09.72,3.14,2.45,5.62,4.45,6.75,1.41,2.38,3.46,3.85,5.49,3.79l-.49.46-.99,1.35-.56,1.24-.54,1.41-.67,2.13-.64,1.89-.17.32c.06-1.43-.15-3-.69-4.56-.9-2.6-2.48-4.62-4.24-5.7-1.88-3.03-4.78-4.64-7.22-3.73-3.07,1.15-4.26,5.82-2.66,10.44.9,2.59,2.48,4.62,4.24,5.69,1.69,2.73,4.21,4.3,6.47,3.92l-.61.77-.29.33-.66,1.31-.48,1.46-.16,1.77-.02,1.58.16,1.73.31,1.13.69,1.55.89,1.41.89.94,1.11.91.32.17.7,1.11.89.94,1.11.91,1.42.76,1.61.56,1.18.14,1.75-.16,1.63-.61.97-.65.39-.4.9-.7.85-.69.75-.62.82-.51.66-.43.79-.33.86-.17,1.05.04.78.08,1.33.48,1.62.61,1.36.7,1.23.55,1.21.37,1.11.09.93-.06.75-.15,1.15-.5,1.43-.94.98-.94.99-1.35.67-1.25.51-1.64.25-1.55v-1.29s-.16-1.32-.16-1.32Z"/>
    <polygon class="cls-2" points="352.37 39.56 352.17 39.07 351.79 38.3 351.54 37.82 350.9 36.88 350.08 36.01 349.03 35.22 347.83 34.3 346.83 33.5 345.87 32.6 345.04 31.68 344.25 30.71 343.38 29.38 342.84 28.48 342.19 27.49 341.39 26.41 340.51 25.45 339.93 24.96 339.36 24.52 338.59 24.05 337.7 23.76 336.58 23.49 335.49 23.47 334.37 23.61 333.32 23.9 331.85 24.7 330.5 25.99 329.66 27.17 329.18 28.26 328.72 29.49 328.15 31.35 327.6 33.01 326.92 34.32 326.07 35.86 323.42 39.27 323.17 39.55 322.61 40.7 322.2 41.98 322.07 43.53 322.05 44.91 322.2 46.43 322.46 47.42 323.06 48.78 323.83 50.01 324.6 50.84 325.55 51.64 326.77 52.3 328.16 52.79 329.17 52.92 330.66 52.78 332.06 52.25 332.89 51.68 333.23 51.33 334 50.72 334.73 50.12 335.37 49.58 336.07 49.13 336.64 48.75 337.31 48.47 338.05 48.32 338.96 48.36 339.63 48.43 340.77 48.85 342.16 49.39 343.33 50.01 344.38 50.49 345.42 50.82 346.37 50.9 347.17 50.85 347.82 50.72 348.81 50.29 350.03 49.47 350.87 48.65 351.72 47.47 352.29 46.37 352.72 44.94 352.93 43.58 352.93 42.45 352.78 41.3 352.65 40.65 352.37 39.56"/>
    <path class="cls-2" d="M341.56,2.17c2.71-.03,4.99,3.32,5.11,7.48.12,4.16-1.98,7.56-4.69,7.6-2.71.03-4.99-3.32-5.11-7.48-.12-4.16,1.98-7.56,4.69-7.59"/>
    <path class="cls-2" d="M331.1,10.02c.92,4.06-.46,7.87-3.09,8.52-2.63.64-5.51-2.13-6.43-6.19-.92-4.06.46-7.87,3.09-8.52,2.63-.64,5.51,2.13,6.43,6.19"/>
    <path class="cls-2" d="M354.88,14.31c2.7.3,4.62,3.88,4.3,7.99-.32,4.11-2.77,7.21-5.46,6.91-2.7-.3-4.62-3.88-4.3-7.99.32-4.11,2.77-7.21,5.46-6.91"/>
    <path class="cls-2" d="M322.05,24.82c1.33,3.91.35,7.85-2.19,8.81-2.54.96-5.68-1.43-7.01-5.33-1.33-3.91-.35-7.85,2.18-8.81,2.54-.96,5.68,1.43,7.01,5.33"/>
  </g>
</svg>