<svg width="41" height="40" viewBox="0 0 41 40" fill="none" xmlns="http://www.w3.org/2000/svg">
<path d="M30.4278 22.6258C30.3373 22.6258 30.2469 22.6258 30.1564 22.6127C29.2042 22.5212 28.352 21.9329 27.7902 20.9917C26.5048 20.386 25.6859 18.8522 25.6764 17.0787C25.3622 17.2051 25.0289 17.2748 24.6861 17.2792H24.6528C23.5816 17.2792 22.6009 16.6691 21.9296 15.6016C20.6346 14.9436 19.7443 13.3313 19.692 11.5099C19.6491 10.0546 20.1538 8.68197 21.0345 7.84098C21.6011 7.30066 22.2819 7.01307 23.0103 7H23.0436C24.1148 7 25.0956 7.61004 25.7669 8.67761C27.0475 9.32687 27.9331 10.9173 27.9997 12.717C28.3996 12.5209 28.8281 12.4206 29.2614 12.4206C29.3518 12.4206 29.4423 12.425 29.528 12.4337C30.4801 12.5252 31.3323 13.1135 31.8941 14.0547C33.3129 14.7257 34.1651 16.521 33.9842 18.5254C33.7747 20.8653 32.2417 22.6301 30.4183 22.6301" fill="#1D1D1B"/>
<path d="M31.4466 14.486C31.0038 13.6494 30.304 13.0786 29.4708 12.9958C28.6329 12.913 27.8378 13.3444 27.2522 14.0895C27.3475 13.6799 27.3951 13.2398 27.3808 12.7823C27.3332 11.0437 26.4667 9.58828 25.3146 9.10025C24.7718 8.15904 23.9387 7.55336 23.015 7.56643C21.4582 7.58386 20.249 9.34426 20.3109 11.4881C20.3585 13.2224 21.225 14.6821 22.3771 15.1701C22.9198 16.1114 23.753 16.717 24.6766 16.704C25.3574 16.6953 25.9763 16.351 26.4476 15.7845C26.3858 16.0329 26.3429 16.29 26.3191 16.5602C26.1525 18.4295 26.9856 20.0766 28.2425 20.5516C28.6853 21.3882 29.3851 21.959 30.2183 22.0418C31.7656 22.1943 33.1795 20.5952 33.3652 18.4731C33.5318 16.6037 32.6987 14.9523 31.4418 14.4817" fill="#1D1D1B"/>
<path d="M18.3827 33.0138C18.3589 33.0138 18.3303 33.0138 18.3065 33.0138L17.7448 32.9528C17.7019 32.9485 17.6591 32.9398 17.6162 32.9267L16.8497 32.6827C16.8164 32.674 16.7878 32.6609 16.7592 32.6478L16.0832 32.3167C16.0451 32.2992 16.0118 32.2774 15.9785 32.2557L15.45 31.8591C15.45 31.8591 15.4119 31.8286 15.3929 31.8112L14.9692 31.4016C14.9406 31.3754 14.9168 31.3449 14.8977 31.3144L14.6502 30.9571H14.6407C14.6026 30.9354 14.5692 30.9136 14.5359 30.8918L14.0075 30.4952C14.0075 30.4952 13.9694 30.4647 13.9503 30.4473L13.5266 30.0377C13.498 30.0116 13.4742 29.9811 13.4552 29.9506L13.0315 29.3362C13.0124 29.3144 12.9982 29.2882 12.9886 29.2621L12.6601 28.5867C12.6458 28.5605 12.6363 28.5344 12.6268 28.5039L12.4792 28.0115C12.4697 27.981 12.4649 27.9461 12.4602 27.9156L12.384 27.1618C12.384 27.1618 12.384 27.1226 12.384 27.1008L12.3935 26.4123C12.3935 26.4123 12.3935 26.3818 12.3935 26.3688L12.4697 25.5975C12.4697 25.5539 12.484 25.5147 12.4983 25.4711L12.7268 24.8349C12.7363 24.8088 12.7506 24.7827 12.7649 24.7565L12.9363 24.4471C12.0412 24.2075 11.1843 23.58 10.532 22.6693C9.59412 22.0985 8.81333 21.1224 8.37533 19.959C7.49457 17.619 8.21346 15.3052 10.0131 14.6908C10.2987 14.595 10.5987 14.5427 10.9081 14.5427C12.0793 14.5427 13.2743 15.2486 14.1217 16.4338C15.0263 16.9829 15.7833 17.911 16.2308 19.0134L16.4022 18.6038C16.4022 18.6038 16.4117 18.582 16.4165 18.5733L16.6831 18.033C16.7021 17.9981 16.7212 17.9633 16.7497 17.9328L16.8211 17.8456C16.0927 17.5667 15.4167 17.0134 14.8882 16.2464C13.8123 15.6277 12.9648 14.4338 12.6125 13.0132C12.0031 10.5774 12.9934 8.34642 14.8644 7.93682C15.0549 7.89325 15.2548 7.87146 15.4548 7.87146C16.5688 7.87146 17.6829 8.5425 18.4636 9.67979C19.5396 10.2985 20.387 11.4925 20.7393 12.913C20.9964 13.9414 20.9679 14.9784 20.6727 15.8499H21.1012C21.144 15.8543 21.1916 15.8586 21.2345 15.8673L21.8582 15.9981C21.8582 15.9981 21.8915 16.0068 21.9105 16.0111L22.4009 16.1593C22.4437 16.1724 22.4866 16.1898 22.5247 16.2116L22.9484 16.4425C22.9484 16.4425 22.9865 16.4643 23.0008 16.4774L23.3197 16.6953L23.6673 16.9567C23.6673 16.9567 23.7101 16.9916 23.7292 17.009L24.2148 17.4883C24.2148 17.4883 24.2434 17.5188 24.2529 17.5319L24.6004 17.9502L24.7623 18.0591L25.1098 18.3206C25.1098 18.3206 25.1527 18.3554 25.1717 18.3729L25.6573 18.8522C25.6573 18.8522 25.6859 18.8827 25.6954 18.8958L26.1382 19.4317C26.1382 19.4317 26.1525 19.4492 26.162 19.4622L26.5191 19.9546L26.8285 20.4209L27.2808 21.0309L27.3046 21.057L27.7045 21.3403L28.3615 21.7935L28.9376 22.1813C28.9662 22.1987 28.99 22.2205 29.0185 22.2466L29.4708 22.678C29.4946 22.6998 29.5137 22.7259 29.5327 22.7477L29.885 23.2096L30.3801 23.5451C30.4087 23.5626 30.4373 23.5844 30.4611 23.6105L30.9134 24.0419C30.9134 24.0419 30.9562 24.0898 30.9752 24.1116L31.3276 24.5822C31.3276 24.5822 31.3561 24.6214 31.3656 24.6389L31.5037 24.8785L31.7179 25.2707C31.7179 25.2707 31.7275 25.2925 31.737 25.3055L31.8512 25.5452C31.8655 25.5714 31.8751 25.5975 31.8798 25.6236C31.8798 25.6236 32.0369 26.1857 32.0417 26.1988L32.1131 26.5213C32.1131 26.5213 32.1179 26.5474 32.1226 26.5605L32.2036 27.1357C32.2036 27.1618 32.2036 27.1836 32.2036 27.2097V27.7719C32.2036 27.8024 32.2036 27.8329 32.194 27.859L32.075 28.5344C32.0702 28.5605 32.0655 28.5867 32.056 28.6128L31.8132 29.3275C31.8036 29.3623 31.7846 29.3928 31.7656 29.4277L31.4466 29.9724C31.4323 29.9941 31.418 30.0203 31.399 30.0421L30.9276 30.6303C30.9086 30.6565 30.88 30.6826 30.8562 30.7044L30.3897 31.114C30.3611 31.1358 30.3325 31.1576 30.304 31.1794L29.6232 31.589C29.5946 31.6064 29.5613 31.6238 29.5279 31.6369L28.9804 31.8548C28.9423 31.8722 28.8995 31.8809 28.8567 31.8896L28.4996 31.955C28.471 31.9593 28.4425 31.9637 28.4139 31.9637L27.9711 31.9898C27.9711 31.9898 27.9426 31.9898 27.933 31.9898C27.914 31.9898 27.8997 31.9898 27.8807 31.9898L27.3522 31.9506C27.3094 31.9506 27.2618 31.9376 27.2189 31.9288L26.6476 31.7676C26.6476 31.7676 26.6 31.7545 26.5762 31.7458L25.9906 31.5062C25.9906 31.5062 25.9668 31.4975 25.9573 31.4931L25.3431 31.2012L24.6052 30.9441L24.0577 30.7654L23.7816 30.7393L23.3721 30.7262L23.096 30.7741L22.8341 30.8743L22.5675 31.0356L22.2009 31.2447L21.8772 31.4931L21.4678 31.7981L21.0583 32.0857L20.9012 32.2295C20.8727 32.2557 20.8393 32.2818 20.8012 32.3036L20.3394 32.5868C20.3013 32.613 20.2585 32.6304 20.2109 32.6478L19.4349 32.918C19.3825 32.9354 19.3301 32.9485 19.273 32.9528L18.4398 33.0226C18.4398 33.0226 18.4018 33.0226 18.3827 33.0226" fill="#1D1D1B"/>
<path d="M31.4942 26.6259L31.4228 26.3034L31.2705 25.7631L31.1562 25.5234L30.9467 25.14L30.8086 24.9003L30.4563 24.4341L30.0041 24.0027L29.4232 23.6105L29.4042 23.5974L29.3709 23.5364L29.0186 23.0702L28.5663 22.6388L27.9854 22.2466L27.3189 21.7891L26.8666 21.4667L26.7809 21.3708L26.2953 20.7128L25.9954 20.264L25.6383 19.7716L25.1956 19.2357L24.71 18.7563L24.3862 18.5123L24.1529 18.3555L23.753 17.8718L23.2674 17.3925L22.9437 17.1484L22.6247 16.9306L22.1962 16.6996L21.7011 16.5515L21.0774 16.4208H20.4728L19.8539 16.4861L19.6253 16.5428C20.2347 15.7018 20.4537 14.3989 20.1157 13.0394C19.7729 11.6711 18.9493 10.5905 17.9971 10.0981C17.2354 8.92161 16.0832 8.25056 14.993 8.49022C13.479 8.82575 12.6792 10.7909 13.2029 12.8869C13.5457 14.2551 14.3693 15.3358 15.3215 15.8281C15.9928 16.8652 16.9688 17.5058 17.9352 17.4796L17.7019 17.68L17.2306 18.2683L16.964 18.8086L16.7069 19.423L16.3879 20.3512L16.0832 21.1747L16.0023 21.3141C16.0309 20.691 15.9309 20.0069 15.6738 19.3272C15.2453 18.1942 14.4931 17.314 13.6552 16.8434C12.7601 15.5231 11.3795 14.8216 10.2178 15.2181C8.75623 15.7192 8.18969 17.7541 8.95143 19.7673C9.37991 20.8958 10.1321 21.7804 10.97 22.2466C11.7746 23.4362 12.9744 24.1203 14.0503 23.9548L13.7599 24.2903L13.6219 24.4341L13.3076 25.0049L13.0791 25.6411L13.0029 26.4123L12.9934 27.1008L13.0696 27.8547L13.2172 28.347L13.5457 29.0224L13.9694 29.6368L14.3931 30.0464L14.9216 30.443L15.0739 30.517L15.4072 31.0007L15.8309 31.4103L16.3594 31.8068L17.0354 32.138L17.8019 32.382L18.3637 32.443L19.1969 32.3733L19.9729 32.1075L20.4347 31.8243L20.6204 31.65L21.0488 31.345L21.4535 31.0443L21.8106 30.7741L22.201 30.5519L22.5152 30.3645L22.8913 30.2207L23.3007 30.1467L23.8006 30.1641L24.172 30.199L24.8052 30.4081L25.5764 30.6739L26.2239 30.9789L26.8095 31.2186L27.3856 31.3798L27.914 31.419L28.3568 31.3929L28.7139 31.3275L29.2614 31.1097L29.9422 30.7001L30.4087 30.2905L30.8801 29.7022L31.199 29.1575L31.4418 28.4429L31.5609 27.7675V27.2054L31.4847 26.6302L31.4942 26.6259Z" fill="#1D1D1B"/>
<path d="M28.0043 24.2336L27.9044 24.0201L27.7234 23.6846L27.6044 23.4755L27.2997 23.0659L26.9093 22.6868L26.4142 22.3425L25.8381 21.9416L25.362 21.593L24.905 21.2009L24.5098 20.8L24.1385 20.3773L23.7195 19.7978L23.4625 19.4056L23.153 18.9742L22.7769 18.5036L22.3579 18.0853L22.0818 17.8718L21.8057 17.6801L21.4391 17.4753L21.0154 17.3489L20.4821 17.2312L19.9632 17.2225L19.43 17.2835L18.9301 17.4099L18.235 17.7585L17.5923 18.3206L17.1876 18.8348L16.9591 19.3097L16.7401 19.8457L16.4687 20.6562L16.2116 21.3795L15.8831 21.9503L15.4785 22.6214L14.2216 24.1073L14.1026 24.2293L13.8312 24.7304L13.6407 25.2881L13.5741 25.9635L13.5693 26.5649L13.636 27.2272L13.7645 27.6586L14.0454 28.2512L14.412 28.7872L14.7786 29.1488L15.2309 29.4974L15.8117 29.785L16.4735 29.9985L16.9543 30.0552L17.6685 29.9942L18.335 29.7632L18.7254 29.5149L18.8872 29.3623L19.2538 29.0965L19.6014 28.8351L19.9061 28.5998L20.2393 28.4037L20.5107 28.2381L20.8344 28.1161L21.182 28.0508L21.6152 28.0682L21.9342 28.0987L22.4769 28.2817L23.1387 28.517L23.6957 28.7872L24.2004 28.9963L24.6908 29.1401L25.1478 29.175L25.5287 29.1532L25.8334 29.0965L26.3047 28.9092L26.8855 28.5519L27.2854 28.1946L27.6901 27.6804L27.9615 27.2011L28.1662 26.5779L28.2662 25.9853V25.4929L28.1995 24.9918L28.1376 24.7086L28.0043 24.2336Z" fill="white"/>
<path d="M22.8533 7.94119C24.1435 7.92812 25.229 9.38786 25.2862 11.2005C25.3433 13.0132 24.3435 14.4948 23.0533 14.5122C21.7631 14.5253 20.6776 13.0655 20.6205 11.2528C20.5634 9.44015 21.5632 7.95862 22.8533 7.94555" fill="white"/>
<path d="M17.8731 11.3618C18.3111 13.1309 17.6541 14.7911 16.402 15.0743C15.1499 15.3532 13.7788 14.1462 13.3408 12.3771C12.9028 10.608 13.5598 8.9478 14.8119 8.66457C16.064 8.38569 17.4351 9.5927 17.8731 11.3618Z" fill="white"/>
<path d="M29.1995 13.2312C30.485 13.3619 31.3991 14.9218 31.2467 16.7127C31.0944 18.5036 29.9279 19.8545 28.6473 19.7237C27.3618 19.593 26.4477 18.033 26.6001 16.2421C26.7524 14.4512 27.9188 13.1004 29.1995 13.2312Z" fill="white"/>
<path d="M13.5695 17.8108C14.2027 19.5146 13.7361 21.2314 12.5269 21.6497C11.3176 22.068 9.82267 21.0266 9.18948 19.3272C8.55628 17.6234 9.02284 15.9066 10.2273 15.4883C11.4366 15.07 12.9315 16.1114 13.5647 17.8108" fill="white"/>
</svg>
