<?xml version="1.0" encoding="UTF-8"?>
<svg id="Capa_1" xmlns="http://www.w3.org/2000/svg" version="1.1" viewBox="0 0 800 800">
  <!-- Generator: Adobe Illustrator 29.0.1, SVG Export Plug-In . SVG Version: 2.1.0 Build 192)  -->
  <defs>
    <style>
      .st0 {
        fill: #fffbe7;
      }
    </style>
  </defs>
  <path class="st0" d="M163,531.8c78.9,94.3,173.9,168.6,282.3,221.1,41.3,19.6,96.5,42.8,158,46.7,3.8.2,7.5.3,11.3.3,41.3,0,74.4-14.3,101.5-43.6.2-.2.5-.5.7-.8,9.6-11.6,20.6-22,32-33.2,7.8-7.5,15.7-15.3,23.4-23.2,35.3-36.8,35.3-83.5-.3-119.2l-99.6-99.6c-16.9-17.6-37.1-26.9-58.4-26.9s-41.6,9.3-59,26.7l-59.3,59.3c-5.5-3.1-11.1-6-16.4-8.6-6.6-3.3-12.8-6.5-18.2-9.9-54-34.3-103.1-79.1-150-136.6-23.7-30-39.6-55.2-50.7-80.9,15.6-14.1,30.2-28.8,44.3-43.3,5-5.1,10.1-10.3,15.3-15.4,17.9-17.9,27.5-38.6,27.5-59.7s-9.4-41.8-27.5-59.7l-49.4-49.4c-5.8-5.8-11.3-11.4-16.9-17.2-10.9-11.3-22.4-22.9-33.7-33.3C202.5,8.8,182.4,0,161.2,0s-41.3,8.8-59,25.7l-62,62C17.6,110.2,4.9,137.6,2.2,169.2c-3.1,39.6,4.1,81.7,23,132.6,29,78.7,72.8,151.8,137.8,229.9ZM42.7,172.7c2-22,10.4-40.4,26.4-56.4l61.7-61.7c9.6-9.3,20.2-14.1,30.5-14.1s20.4,4.8,29.8,14.4c11.1,10.3,21.5,21.1,32.8,32.5,5.6,5.8,11.4,11.6,17.2,17.6l49.4,49.4c10.3,10.3,15.6,20.7,15.6,31s-5.3,20.7-15.6,31-10.3,10.4-15.4,15.6c-15.4,15.6-29.8,30.3-45.8,44.4l-.8.8c-13.8,13.8-11.6,26.9-8.3,36.8.2.5.3.8.5,1.3,12.8,30.7,30.5,59.8,58.2,94.7,49.7,61.3,102.1,108.9,159.8,145.5,7.1,4.6,14.8,8.3,21.9,11.9,6.6,3.3,12.8,6.5,18.2,9.9.7.3,1.2.7,1.8,1,5.5,2.8,10.8,4.1,16.1,4.1,13.3,0,21.9-8.5,24.7-11.3l62-62c9.6-9.6,20.1-14.8,30.3-14.8s22.9,7.8,29.3,14.8l100,99.8c19.9,19.9,19.7,41.4-.5,62.5-7,7.5-14.3,14.6-22,22-11.6,11.3-23.7,22.9-34.6,36-19.1,20.6-41.8,30.2-71.1,30.2s-5.8-.2-8.6-.3c-54.4-3.5-104.9-24.7-142.9-42.8-103.1-49.9-193.6-120.7-268.7-210.5-61.8-74.4-103.4-143.7-131-218-17.1-45.6-23.5-82.2-20.9-115.5Z"/>
</svg>